<?xml version="1.0" encoding="UTF-8"?><svg id="Layer_1" xmlns="http://www.w3.org/2000/svg" xmlns:xlink="http://www.w3.org/1999/xlink" viewBox="0 0 176.06 116.69"><defs><style>.cls-1{clip-path:url(#clippath);}.cls-2{fill:none;}.cls-2,.cls-3,.cls-4,.cls-5{stroke-width:0px;}.cls-6{clip-path:url(#clippath-1);}.cls-7{clip-path:url(#clippath-4);}.cls-8{clip-path:url(#clippath-3);}.cls-9{clip-path:url(#clippath-2);}.cls-10{clip-path:url(#clippath-7);}.cls-11{clip-path:url(#clippath-8);}.cls-12{clip-path:url(#clippath-6);}.cls-13{clip-path:url(#clippath-5);}.cls-14{clip-path:url(#clippath-9);}.cls-15{clip-path:url(#clippath-14);}.cls-16{clip-path:url(#clippath-13);}.cls-17{clip-path:url(#clippath-12);}.cls-18{clip-path:url(#clippath-10);}.cls-19{clip-path:url(#clippath-15);}.cls-20{clip-path:url(#clippath-17);}.cls-21{clip-path:url(#clippath-16);}.cls-22{clip-path:url(#clippath-11);}.cls-3{fill:#231f20;}.cls-4{fill:#8d133f;}.cls-5{fill:#8e1441;}</style><clipPath id="clippath"><rect class="cls-2" x="0" width="176.06" height="116.69"/></clipPath><clipPath id="clippath-1"><rect class="cls-2" x="0" width="176.06" height="116.69"/></clipPath><clipPath id="clippath-2"><rect class="cls-2" x="0" width="176.06" height="116.69"/></clipPath><clipPath id="clippath-3"><rect class="cls-2" x="0" width="176.06" height="116.69"/></clipPath><clipPath id="clippath-4"><rect class="cls-2" x="0" width="176.06" height="116.69"/></clipPath><clipPath id="clippath-5"><rect class="cls-2" x="0" width="176.06" height="116.69"/></clipPath><clipPath id="clippath-6"><rect class="cls-2" x="0" width="176.06" height="116.69"/></clipPath><clipPath id="clippath-7"><rect class="cls-2" x="0" width="176.06" height="116.69"/></clipPath><clipPath id="clippath-8"><rect class="cls-2" x="0" width="176.06" height="116.69"/></clipPath><clipPath id="clippath-9"><rect class="cls-2" x="0" width="176.06" height="116.69"/></clipPath><clipPath id="clippath-10"><rect class="cls-2" x="0" width="176.06" height="116.69"/></clipPath><clipPath id="clippath-11"><rect class="cls-2" x="0" width="176.06" height="116.69"/></clipPath><clipPath id="clippath-12"><rect class="cls-2" x="0" width="176.06" height="116.69"/></clipPath><clipPath id="clippath-13"><rect class="cls-2" x="0" width="176.06" height="116.69"/></clipPath><clipPath id="clippath-14"><rect class="cls-2" x="0" width="176.06" height="116.69"/></clipPath><clipPath id="clippath-15"><rect class="cls-2" x="0" width="176.06" height="116.69"/></clipPath><clipPath id="clippath-16"><rect class="cls-2" x="0" width="176.06" height="116.69"/></clipPath><clipPath id="clippath-17"><rect class="cls-2" x="0" width="176.06" height="116.69"/></clipPath></defs><g class="cls-1"><path class="cls-3" d="m41.54,42.85h-6.55v-8.79l.04-.1c.04-.1.99-2.45,3.25-2.78l.12-.02.12.03c.08.02,1.99.61,2.98,2.73l.05.11v8.8Zm-5.44-1.11h4.33v-7.45c-.66-1.33-1.77-1.85-2.12-1.99-1.33.27-2.04,1.62-2.21,1.98v7.45Z"/></g><rect class="cls-3" x="35.36" y="34.16" width="5.83" height=".89"/><rect class="cls-3" x="35.36" y="39.41" width="5.83" height=".89"/><rect class="cls-3" x="37.78" y="32.07" width=".98" height="9.88"/><g class="cls-6"><path class="cls-3" d="m32.18,42.85h-6.55v-8.79l.04-.1c.04-.1.99-2.45,3.25-2.78l.12-.02.12.03c.08.02,1.99.61,2.98,2.73l.05.11v8.8Zm-5.44-1.11h4.33v-7.45c-.66-1.33-1.77-1.85-2.12-1.99-1.33.27-2.04,1.62-2.21,1.98v7.45Z"/></g><rect class="cls-3" x="26" y="34.16" width="5.83" height=".89"/><rect class="cls-3" x="26" y="39.41" width="5.83" height=".89"/><rect class="cls-3" x="28.42" y="32.07" width=".98" height="9.88"/><g class="cls-9"><path class="cls-3" d="m22.82,42.85h-6.55v-8.79l.04-.1c.04-.1.99-2.45,3.25-2.78l.12-.02.12.03c.08.02,2,.61,2.98,2.73l.05.11v8.8Zm-5.44-1.11h4.33v-7.45c-.66-1.33-1.77-1.85-2.12-1.99-1.33.27-2.04,1.62-2.21,1.98v7.45Z"/></g><rect class="cls-3" x="16.64" y="34.16" width="5.83" height=".89"/><rect class="cls-3" x="16.64" y="39.41" width="5.83" height=".89"/><rect class="cls-3" x="19.06" y="32.07" width=".98" height="9.88"/><g class="cls-8"><path class="cls-3" d="m13.46,42.85h-6.55v-8.79l.04-.1c.04-.1.99-2.45,3.25-2.78l.12-.02.12.03c.08.02,2,.61,2.98,2.73l.05.11v8.8Zm-5.44-1.11h4.33v-7.45c-.66-1.33-1.77-1.85-2.12-1.99-1.33.27-2.04,1.62-2.21,1.98v7.45Z"/></g><rect class="cls-3" x="7.28" y="34.16" width="5.83" height=".89"/><rect class="cls-3" x="7.28" y="39.41" width="5.83" height=".89"/><rect class="cls-3" x="9.7" y="32.07" width=".98" height="9.88"/><g class="cls-7"><path class="cls-5" d="m14.03,68.88c0,1.59-.64,2.84-1.91,3.75-1.13.81-2.54,1.2-4.22,1.2-.36,0-.92-.02-1.67-.07-.73-.04-1.28-.07-1.65-.07-.32,0-.8,0-1.44.02-.64.03-1.12.04-1.45.04-.3,0-.45-.07-.45-.22,0-.14.4-.23,1.19-.27.35-.07.58-.49.67-1.26.08-.6.11-2.21.11-4.83v-4c0-2.72-.01-4.33-.04-4.81-.05-.73-.37-1.16-.99-1.3-.21-.04-.51-.06-.89-.06-.26,0-.39-.07-.39-.21,0-.13.16-.2.5-.2.47,0,1.1,0,1.86.02l1.26.05c.3,0,.77,0,1.4-.03.63-.03,1.09-.05,1.4-.05,1.32,0,2.42.24,3.28.73,1.07.59,1.6,1.48,1.6,2.68,0,1.41-.77,2.73-2.33,3.98,1.19.41,2.16,1.02,2.91,1.82.84.91,1.26,1.94,1.26,3.09m-4.25-7.84c0-.93-.24-1.72-.71-2.38-.53-.76-1.25-1.14-2.16-1.14h-.63c-.23.05-.33.19-.33.44v5.61c0,.18.17.29.53.31h.71c.75,0,1.3-.14,1.65-.43.63-.52.94-1.32.94-2.41m1.42,8.86c0-1.98-.74-3.49-2.23-4.52-.55-.37-1.51-.57-2.89-.57-.09,0-.14.05-.14.16v5.38c0,.66.02,1.07.07,1.25.09.47.33.78.74.93.46.19,1.01.28,1.67.28.85,0,1.53-.27,2.02-.8.5-.54.76-1.25.76-2.11"/><path class="cls-5" d="m6.32,57.72c-.1.03-.16.08-.16.23v5.61s.12.1.34.11h.7c.7,0,1.21-.13,1.53-.38.58-.48.86-1.22.86-2.25,0-.88-.23-1.64-.67-2.27-.5-.71-1.15-1.06-1.99-1.06h-.6Zm.88,6.36h-.71c-.63-.05-.72-.34-.72-.52v-5.61c0-.34.17-.56.49-.63h.04s.63,0,.63,0c.97,0,1.75.41,2.32,1.23.5.69.75,1.53.75,2.5,0,1.15-.34,2.01-1.01,2.56-.39.32-.97.47-1.78.47m-1.04.93v5.34c0,.24,0,.97.06,1.2.08.41.28.67.61.79.43.17.97.26,1.6.26.8,0,1.43-.25,1.87-.74.47-.5.7-1.17.7-1.97,0-1.91-.72-3.37-2.14-4.36-.5-.34-1.44-.52-2.71-.53m2.27,8c-.68,0-1.27-.1-1.75-.29-.46-.17-.75-.54-.86-1.08-.05-.18-.07-.58-.07-1.29v-5.38c0-.27.17-.36.34-.36,1.4,0,2.41.2,3,.6,1.54,1.07,2.32,2.64,2.32,4.69,0,.91-.27,1.67-.81,2.25-.52.58-1.25.87-2.16.87m-3.85.48c.38,0,.94.02,1.66.07.88.05,1.39.07,1.66.07,1.64,0,3.02-.39,4.1-1.17,1.23-.88,1.83-2.05,1.83-3.58,0-1.1-.4-2.07-1.21-2.95-.73-.78-1.68-1.37-2.83-1.76l-.35-.12.29-.23c1.5-1.19,2.26-2.48,2.26-3.82,0-1.13-.49-1.95-1.5-2.5-.83-.47-1.9-.7-3.19-.7-.23,0-.66,0-1.39.05-.64.02-1.1.03-1.41.03l-1.27-.05c-.76-.01-1.38-.02-1.85-.02-.06,0-.11,0-.16,0,.01,0,.03,0,.04,0,.39,0,.7.02.93.07.71.16,1.1.66,1.15,1.49.03.48.05,2.06.05,4.83v4c0,2.66-.04,4.25-.12,4.86-.1.87-.37,1.33-.82,1.43-.47.03-.73.06-.88.1.03,0,.06,0,.1,0,.32,0,.79-.01,1.44-.04.65-.02,1.13-.02,1.45-.02m3.32.53c-.4,0-.98-.02-1.69-.07-.72-.04-1.27-.07-1.64-.07-.32,0-.8,0-1.44.02-.65.03-1.13.04-1.45.04-.57,0-.65-.27-.65-.42,0-.3.35-.42,1.38-.47.29-.06.42-.62.48-1.08.08-.59.11-2.16.11-4.81v-4c0-2.76-.01-4.33-.04-4.8-.04-.64-.31-1-.83-1.12-.2-.04-.48-.06-.85-.06-.53,0-.59-.29-.59-.41,0-.18.12-.4.7-.4.47,0,1.1,0,1.86.02l1.27.05c.3,0,.76,0,1.38-.03.58-.03,1.07-.05,1.4-.05,1.35,0,2.49.25,3.38.75,1.13.62,1.71,1.58,1.71,2.86,0,1.38-.72,2.7-2.13,3.91,1.06.41,1.96,1,2.66,1.75.87.95,1.32,2.04,1.32,3.23,0,1.65-.67,2.96-1.99,3.91-1.15.82-2.61,1.24-4.33,1.24"/><path class="cls-5" d="m31.82,70.72c0,.93-.1,1.78-.3,2.52-.08.31-.23.49-.46.55-.09.03-.35.05-.78.05-.7,0-1.77-.02-3.19-.07-1.41-.05-2.47-.07-3.16-.07-.32,0-.81,0-1.45.02-.64.03-1.13.05-1.44.05s-.46-.07-.46-.23c0-.14.4-.23,1.19-.27.35-.07.57-.49.66-1.26.08-.6.11-2.21.11-4.83v-4c0-2.72-.01-4.33-.04-4.81-.05-.73-.37-1.16-.99-1.3-.21-.04-.51-.06-.89-.06-.26,0-.39-.07-.39-.21,0-.13.17-.2.5-.2.46,0,1.08,0,1.88.02l1.42.05,5.74-.02c.33-.03.79-.11,1.35-.23.09,0,.14.07.14.2,0,.16-.02.41-.07.73-.06.36-.09.61-.09.75-.05.57-.09,1.07-.14,1.5-.02.16-.09.25-.23.25-.12,0-.21-.24-.25-.73-.08-.7-.62-1.1-1.63-1.22-.49-.07-1.58-.09-3.26-.09-.11,0-.16.08-.16.23v5.74c0,.17.05.25.16.25,2.03,0,3.26-.02,3.67-.05.3-.02.49-.04.6-.07.21-.05.38-.14.51-.27.18-.2.3-.3.36-.3.11,0,.16.06.16.18,0,.2-.02.47-.07.82-.06.42-.1.7-.11.84-.06.88-.09,1.39-.09,1.52,0,.29-.07.43-.21.43-.12,0-.21-.14-.25-.43-.02-.2-.03-.4-.04-.6-.11-.51-.54-.81-1.29-.88-.44-.04-1.52-.07-3.26-.07-.09,0-.13.08-.13.23v5.32c0,.79.18,1.3.55,1.55.32.24,1.05.36,2.21.36,1.03,0,1.76-.09,2.15-.27.54-.24.88-.8,1.04-1.68.04-.22.13-.34.25-.34s.18.14.18.42"/><path class="cls-5" d="m30.75,59.64h0,0Zm-6.81,13.86c.76,0,1.85.02,3.17.07,1.41.05,2.48.07,3.18.07.59,0,.7-.03.71-.04.12-.03.26-.1.33-.41.19-.72.29-1.55.29-2.47,0-.06,0-.11,0-.14,0,.03-.02.06-.03.11-.17.94-.55,1.56-1.15,1.83-.42.19-1.17.29-2.23.29-1.2,0-1.97-.13-2.33-.4-.42-.28-.63-.84-.63-1.71v-5.32c0-.41.28-.43.33-.43,1.67,0,2.8.02,3.27.07.84.09,1.33.44,1.46,1.04l.02.21c0,.14.02.27.03.41.02.09.03.16.05.19,0-.04.01-.09.01-.18,0-.16.03-.73.09-1.54,0-.07.02-.17.04-.29.02-.15.05-.33.08-.56.04-.3.06-.55.07-.73-.04.03-.1.09-.18.18-.16.17-.36.28-.61.33-.11.03-.3.05-.63.07-.41.03-1.65.05-3.68.05-.06,0-.36-.02-.36-.46v-5.74c0-.32.18-.43.36-.43,1.75,0,2.8.03,3.29.09,1.1.13,1.71.6,1.8,1.4.02.27.06.42.08.5,0,0,0,0,0-.01.03-.29.06-.62.09-.98l.05-.52c0-.15.03-.43.09-.76.04-.27.06-.51.06-.68-.5.1-.94.18-1.27.21l-5.76.03-1.43-.05c-.79-.01-1.41-.02-1.87-.02-.06,0-.11,0-.15,0,.01,0,.02,0,.03,0,.39,0,.7.02.93.07.71.16,1.09.66,1.15,1.48.03.48.04,2.06.04,4.83v4c0,2.66-.04,4.25-.11,4.86-.1.87-.37,1.33-.82,1.43-.47.03-.73.06-.88.1.03,0,.06,0,.1,0,.34,0,.84-.02,1.43-.05.64-.02,1.13-.02,1.46-.02m6.35.54c-.7,0-1.78-.02-3.19-.07-1.31-.04-2.4-.07-3.15-.07-.32,0-.81,0-1.44.02-.6.03-1.1.05-1.45.05-.54,0-.66-.23-.66-.43,0-.3.35-.41,1.38-.47.29-.06.42-.62.48-1.08.08-.59.11-2.16.11-4.81v-4c0-2.76-.01-4.33-.04-4.8-.04-.64-.31-1-.83-1.12-.2-.04-.48-.06-.85-.06-.53,0-.59-.28-.59-.41,0-.18.12-.4.7-.4.46,0,1.09,0,1.88.02l1.42.05,5.73-.02c.32-.03.78-.11,1.31-.22h.04c.15,0,.33.1.33.4,0,.19-.02.46-.07.76-.06.31-.09.58-.09.72l-.05.54c-.03.36-.06.69-.09.98-.03.27-.19.43-.43.43-.33,0-.41-.46-.45-.91-.07-.59-.54-.93-1.45-1.04-.46-.06-1.51-.09-3.19-.09,0,0,0,.02,0,.03v5.74s0,.04,0,.05c1.99,0,3.21-.02,3.61-.05.29-.02.47-.04.56-.06.19-.04.32-.11.42-.22.26-.3.4-.36.51-.36.22,0,.36.15.36.38,0,.21-.02.48-.07.85-.03.23-.06.42-.08.57-.02.12-.03.21-.04.27-.06.93-.09,1.38-.09,1.5,0,.55-.26.63-.41.63-.24,0-.39-.2-.45-.6-.01-.15-.02-.29-.03-.43v-.18c-.1-.39-.46-.63-1.12-.7-.32-.03-1.12-.07-3.17-.07,0,0,0,.02,0,.03v5.32c0,.71.15,1.18.46,1.38.2.15.73.33,2.1.33,1.25,0,1.81-.14,2.07-.26.48-.22.78-.72.92-1.54.08-.46.34-.51.45-.51.17,0,.38.11.38.62,0,.95-.1,1.82-.3,2.57-.09.38-.3.61-.6.69-.06.02-.22.05-.83.05"/><path class="cls-5" d="m51.65,70.44c0,.75-.16,1.67-.46,2.77-.11.4-.33.59-.69.59-1.37,0-3.43-.03-6.17-.07-2.72-.03-4.77-.04-6.15-.04-.26,0-.39-.08-.39-.23,0-.11.11-.33.35-.68l9.7-14.93h-4.5c-1.62,0-2.72.16-3.3.48-.4.21-.69.5-.87.86-.08.17-.21.54-.41,1.11-.05.14-.12.21-.23.21-.13,0-.19-.13-.19-.39,0-.27.15-1.36.46-3.27.05-.29.14-.43.28-.43.06,0,.2.03.41.09.23.04.4.07.5.07.99.05,2.39.07,4.22.07h7c.25,0,.39.06.39.18,0,.09-.06.23-.19.43-1.62,2.61-4.92,7.67-9.88,15.18h5.64c1.95,0,3.15-.41,3.61-1.25.2-.36.34-.72.41-1.09.05-.24.13-.37.23-.37.15,0,.23.23.23.7"/><path class="cls-5" d="m38.53,60.32h0,0Zm-.54,13.15s.05.03.19.03c1.08,0,3.02,0,6.15.04,3.02.05,4.92.07,6.17.07.19,0,.39-.05.5-.44.31-1.11.46-2,.46-2.72,0-.22-.02-.35-.04-.42,0,.03-.02.07-.03.12-.07.38-.21.75-.43,1.14-.5.91-1.74,1.36-3.78,1.36h-6.01l.21-.31c5.3-8.01,8.34-12.69,9.88-15.17.09-.14.13-.23.15-.28-.03,0-.09-.02-.18-.02h-7c-1.79,0-3.21-.02-4.23-.07-.11,0-.28-.02-.53-.07-.28-.08-.36-.09-.38-.09,0,0-.05.06-.08.26-.41,2.54-.46,3.11-.46,3.24,0,.07,0,.12.01.15,0,0,0-.02.01-.04.23-.64.35-.96.42-1.13.21-.41.53-.73.96-.96.62-.34,1.73-.5,3.39-.5h4.87l-9.9,15.24c-.28.43-.31.55-.31.57m12.51.54c-1.26,0-3.11-.02-6.17-.07-3.12-.03-5.07-.04-6.15-.04-.53,0-.59-.3-.59-.43,0-.16.1-.37.38-.79l9.5-14.62h-4.13c-1.58,0-2.66.15-3.21.46-.36.19-.63.45-.79.78-.06.14-.18.47-.4,1.09-.1.3-.3.34-.41.34-.14,0-.39-.08-.39-.59,0-.38.25-2.01.46-3.31.08-.5.3-.6.47-.6.06,0,.16.01.47.1.21.04.36.06.45.06,1.02.05,2.44.07,4.22.07h7c.51,0,.59.24.59.38s-.07.32-.22.54c-1.51,2.45-4.5,7.04-9.68,14.87h5.27c1.86,0,3.01-.39,3.43-1.15.19-.36.32-.69.39-1.03.07-.35.21-.53.42-.53.43,0,.43.68.43.9,0,.76-.15,1.68-.47,2.83-.16.61-.57.74-.88.74"/><path class="cls-5" d="m79.9,73.51c0,.16-.2.25-.6.25-1.9,0-3.45-.04-4.66-.14-.44-.03-.66-.11-.66-.25,0-.03.07-.11.22-.25.17-.14.21-.46.14-.98l-1.38-10h-.09l-5,10.32c-.41.85-.7,1.27-.85,1.27-.14,0-.41-.38-.8-1.14-1.39-2.64-2.27-4.36-2.64-5.16-.3-.67-1.1-2.35-2.39-5.05h-.09l-1.19,9.04c-.04.35-.07.7-.07,1.07,0,.56.55.84,1.65.84.23,0,.34.05.34.16,0,.16-.19.25-.55.25s-.84,0-1.4-.02l-1.01-.04c-.24,0-.62,0-1.12.02-.5.03-.88.04-1.14.04-.27,0-.42-.09-.42-.25,0-.09.15-.16.46-.18.2-.01.4-.03.6-.04.46-.1.78-.69.94-1.8l2.27-14.81c.06-.39.19-.59.39-.59.19,0,.39.24.62.7l6.26,12.82,6.24-12.97c.16-.37.33-.55.5-.55.2,0,.33.24.41.7l2.09,14.04c.1.67.18,1.12.28,1.34.17.52.45.84.84.96.49.15.97.22,1.43.22.24,0,.37.05.37.16"/><path class="cls-5" d="m74.25,73.36c.07.02.19.05.41.06,1.18.09,2.7.14,4.65.14.07,0,.13,0,.18,0-.45,0-.93-.08-1.43-.23-.47-.15-.79-.51-.98-1.09-.09-.21-.18-.66-.28-1.37l-2.09-14.04c-.07-.44-.18-.53-.21-.53,0,0-.13,0-.32.43l-6.42,13.35-6.44-13.19c-.29-.59-.44-.59-.44-.59-.08,0-.15.17-.19.42l-2.27,14.81c-.18,1.2-.54,1.85-1.1,1.96l-.26.02c-.12,0-.25.02-.37.03-.07,0-.13.01-.17.02.03,0,.07,0,.12,0,.26,0,.64-.01,1.13-.04.51-.02.89-.02,1.13-.02l1.02.04c.56.02,1.02.02,1.39.02.06,0,.12,0,.16,0-1.2,0-1.81-.36-1.81-1.04,0-.36.02-.72.07-1.09l1.22-9.22h.39l.05.11c1.3,2.71,2.09,4.39,2.39,5.05.38.83,1.29,2.61,2.63,5.15.37.71.56.93.63,1.01.08-.07.27-.32.67-1.14l5.06-10.43h.39l1.4,10.17c.09.6.02.98-.21,1.17-.03.03-.06.06-.08.08m5.05.6c-1.95,0-3.48-.05-4.67-.14-.25-.01-.84-.05-.84-.44,0-.11.06-.19.29-.4.06-.05.16-.2.07-.8l-1.31-9.49-4.79,9.87c-.62,1.28-.85,1.38-1.03,1.38s-.38-.09-.98-1.24c-1.34-2.54-2.25-4.33-2.64-5.17-.28-.62-1-2.15-2.17-4.59l-1.12,8.53c-.04.35-.06.7-.06,1.04,0,.43.49.64,1.45.64.47,0,.54.23.54.36,0,.2-.13.45-.75.45-.37,0-.84,0-1.4-.02l-1.02-.04c-.23,0-.61,0-1.11.02-.49.03-.88.04-1.15.04-.57,0-.62-.34-.62-.45,0-.33.48-.37.64-.38.13,0,.25-.02.37-.03l.24-.02c.34-.07.61-.64.76-1.63l2.27-14.81c.08-.51.28-.76.59-.76.27,0,.52.25.8.82l6.08,12.45,6.06-12.6c.13-.28.34-.66.68-.66.46,0,.57.66.61.87l2.09,14.04c.09.67.18,1.1.26,1.29.15.47.38.74.72.85.48.14.94.21,1.37.21.47,0,.57.2.57.36,0,.2-.14.45-.8.45"/><path class="cls-5" d="m89.61,53.97c0,.42-.13.77-.39,1.04-.26.27-.61.41-1.04.41s-.75-.13-1.01-.38c-.24-.26-.37-.59-.37-1s.13-.72.39-.98c.26-.27.6-.41,1.01-.41s.72.12.99.37c.27.24.41.56.41.95m2.47,19.57c0,.15-.14.22-.43.22-.58,0-1.28,0-2.11-.02l-1.47-.04c-.32,0-.8,0-1.44.02-.65.03-1.13.04-1.45.04s-.46-.07-.46-.22.4-.23,1.19-.27c.33-.08.57-.59.71-1.52.09-.68.13-1.59.11-2.73-.03-2.82-.05-3.43-.05-1.84v-4c0-2.72-.02-4.33-.05-4.81-.04-.73-.3-1.15-.78-1.27-.23-.03-.46-.05-.69-.07-.34-.04-.51-.13-.51-.25,0-.12.18-.18.55-.18.34,0,.84.01,1.49.05.65.02,1.15.02,1.49.02.3,0,.77,0,1.4-.02.63-.03,1.09-.05,1.4-.05.32,0,.48.06.48.18,0,.12-.15.21-.44.25-.21.01-.42.03-.61.04-.52.1-.81.52-.85,1.3-.03.51-.05,2.12-.05,4.81v4c0,2.68.03,4.34.09,4.99.06.65.37,1.02.92,1.1.29,0,.58.03.85.04.46.04.68.12.68.23"/><path class="cls-5" d="m88.21,52.85c-.36,0-.65.11-.87.35-.23.23-.33.5-.33.84s.1.64.31.86c.22.21.5.32.86.32s.67-.11.89-.35c.23-.23.34-.53.34-.9,0-.34-.11-.6-.35-.8-.23-.21-.51-.32-.86-.32m-.03,2.77c-.46,0-.85-.15-1.15-.44-.28-.3-.43-.68-.43-1.14s.15-.82.45-1.12c.29-.31.68-.47,1.15-.47.44,0,.82.14,1.12.42.32.28.48.65.48,1.1,0,.48-.15.87-.45,1.18-.3.31-.7.47-1.18.47m-.11,17.87l1.48.04c.82.02,1.52.02,2.1.02.03,0,.06,0,.08,0-.08-.02-.19-.04-.35-.05h-.28c-.18-.02-.37-.03-.56-.04-.47-.06-1.03-.34-1.11-1.28-.06-.66-.09-2.3-.09-5.01v-4c0-2.89.01-4.34.05-4.83.05-.87.39-1.37,1.01-1.49.16,0,.3-.02.44-.03h.19s.09-.03.12-.04c-.19-.02-.62,0-1.53.04-.64.02-1.11.02-1.41.02-.35,0-.84,0-1.5-.02-.61-.03-1.12-.05-1.49-.05-.07,0-.12,0-.17,0,.04,0,.09.02.15.02.22.01.45.04.69.07.41.1.89.44.95,1.46.03.49.05,2.11.05,4.82v3.16s0,.08,0,.28c.02.4.03,1.11.04,2.39.01,1.14-.03,2.07-.12,2.76-.16,1.06-.44,1.59-.87,1.69-.47.03-.73.06-.88.1.03,0,.06,0,.1,0,.32,0,.81-.01,1.44-.04.65-.02,1.13-.02,1.45-.02m3.58.47c-.58,0-1.29,0-2.11-.02l-1.47-.04c-.31,0-.79,0-1.43.02-.63.03-1.12.04-1.45.04-.57,0-.66-.27-.66-.42,0-.3.36-.42,1.38-.47.08-.02.35-.2.52-1.35.09-.66.12-1.57.11-2.7,0-.78-.02-1.4-.02-1.84h-.02v-4c0-2.71-.02-4.32-.05-4.8-.04-.64-.24-1-.63-1.09-.2-.02-.43-.05-.65-.06-.18-.02-.69-.09-.69-.45s.56-.38.75-.38c.37,0,.89.02,1.5.05.65.02,1.14.02,1.48.02.3,0,.77,0,1.4-.02.58-.03,1.06-.05,1.4-.05.45,0,.68.13.68.38,0,.24-.2.39-.61.45h-.2c-.15.03-.29.04-.43.04-.25.05-.61.22-.66,1.11-.03.48-.04,1.92-.04,4.8v4c0,2.66.03,4.34.09,4.97.05.55.29.85.75.92.17,0,.36.01.55.02h.28c.46.06.87.14.87.45,0,.16-.08.42-.63.42"/><path class="cls-5" d="m108.09,54.02c0,.08-.04.15-.11.23l-.67.66c-.11.1-.2.16-.3.16-.06,0-.18-.08-.34-.24-.5-.49-1.17-1.05-2.02-1.68-.13-.09-.22-.14-.3-.14-.09,0-.21.03-.34.11-.89.5-1.69,1.06-2.43,1.68-.22.18-.37.27-.46.27-.13,0-.2-.07-.2-.22,0-.08.07-.19.2-.34.54-.59,1.55-1.53,3.03-2.82.22-.18.38-.27.48-.27.06,0,.2.08.41.25.6.49,1.51,1.17,2.74,2.05.21.15.32.26.32.31m5.76,19.52c0,.15-.36.22-1.06.22-1.92,0-3.36-.02-4.33-.04-.46-.02-.69-.08-.69-.18,0-.13.11-.19.32-.21.24-.08.31-.25.2-.52l-1.83-4.82c-.05-.11-.12-.16-.23-.16h-5.11c-.09,0-.16.06-.2.18l-1.24,3.25c-.23.61-.35,1.07-.35,1.39,0,.47.31.7.92.7h.34c.23,0,.34.06.34.19,0,.15-.12.22-.38.22-.23,0-.64-.02-1.22-.04-.52-.03-.92-.04-1.21-.02l-.98.04c-.67.02-1.25.02-1.72.02-.29,0-.44-.07-.44-.22,0-.11.14-.18.41-.21.2,0,.39,0,.57-.02.5-.06.92-.3,1.26-.73.21-.26.44-.7.69-1.32l5.76-14.27c.25-.61.46-.91.64-.91s.37.25.57.73l3.14,7.79c.88,2.17,1.74,4.22,2.55,6.18.63,1.5,1.3,2.33,2.02,2.48.28.06.6.09.97.09.2,0,.3.06.3.19m-7.94-6.98l-2.07-5.61c-.03-.14-.06-.21-.11-.21-.06,0-.11.07-.14.21l-2.1,5.59c-.05.11-.02.16.09.16h4.22c.11,0,.15-.04.12-.14"/><path class="cls-5" d="m104.35,52.8c.12,0,.25.06.42.17.84.62,1.53,1.2,2.05,1.7.15.15.21.18.23.19,0,0,.04-.02.13-.1l.66-.65s.04-.04.04-.06c-.03-.03-.09-.09-.22-.18-1.34-.96-2.19-1.6-2.75-2.06-.21-.17-.29-.2-.3-.2,0,0-.09.02-.34.23-1.45,1.26-2.47,2.21-3.01,2.8-.14.15-.15.21-.15.22,0,.01.09,0,.34-.21.74-.63,1.57-1.2,2.46-1.7.19-.11.34-.14.44-.14m2.67,2.46c-.12,0-.26-.09-.48-.3-.5-.49-1.18-1.05-2-1.66-.13-.09-.18-.1-.18-.1-.03,0-.12,0-.24.08-.87.49-1.68,1.05-2.4,1.66-.27.22-.45.32-.59.32-.24,0-.4-.16-.4-.42,0-.13.07-.27.25-.48.56-.61,1.58-1.56,3.05-2.84.27-.22.46-.32.61-.32.1,0,.23.05.53.29.56.45,1.4,1.08,2.73,2.04.29.21.4.34.4.48,0,.13-.06.25-.17.37l-.67.66c-.15.14-.29.21-.44.21m-5.3,11.24h3.96s-1.96-5.32-1.96-5.32l-2,5.32Zm4.01.13h0s0,0,0,0Zm.07.27h-4.22c-.16,0-.23-.07-.27-.13-.04-.06-.07-.17,0-.32l2.1-5.57c.05-.22.16-.34.32-.34.24,0,.29.28.31.37l2.06,5.59c.05.14,0,.24-.03.28-.04.06-.12.12-.28.12m7.85,6.64h.2-.2s0,0,0,0c0,0,0,0,0,0m-5.44-.04c.07,0,.15.01.26.02.98.03,2.43.04,4.32.04.19,0,.34,0,.46-.01-.27-.01-.5-.04-.71-.09-.79-.17-1.49-1.02-2.16-2.6l-.37-.89c-.7-1.69-1.43-3.45-2.18-5.29l-3.14-7.79c-.24-.59-.38-.61-.38-.61,0,0-.16.05-.46.79l-5.76,14.27c-.26.65-.49,1.09-.72,1.37-.36.46-.83.73-1.39.8-.21.02-.42.02-.6.02-.05,0-.1.01-.13.02.04,0,.09,0,.15,0,.47,0,1.05,0,1.72-.02l.98-.04c.27-.02.65-.01,1.23.02.72.04,1.15.06,1.31.04-.02,0-.04,0-.06,0h-.34c-.97,0-1.12-.57-1.12-.9s.12-.83.36-1.46l1.24-3.25c.11-.27.29-.31.39-.31h5.11c.19,0,.34.1.41.28l1.84,4.83c.08.19.08.36.02.5-.05.12-.15.2-.29.26m4.57.46c-1.89,0-3.35-.02-4.33-.04-.43-.02-.88-.06-.88-.38,0-.14.06-.37.48-.41.03-.01.07-.03.09-.06.02-.04,0-.1-.03-.19l-1.84-4.82s-.02-.03-.05-.03h-5.11s-.01.02-.02.05l-1.24,3.25c-.22.58-.33,1.02-.33,1.31,0,.15,0,.5.72.5h.34c.49,0,.54.27.54.39,0,.13-.06.42-.58.42-.23,0-.62-.01-1.23-.05-.56-.03-.93-.04-1.19-.02l-.99.04c-.68.02-1.26.02-1.73.02-.55,0-.63-.27-.63-.42s.1-.36.59-.41c.19,0,.39,0,.57-.02.45-.06.82-.27,1.13-.65.2-.24.42-.67.66-1.26l5.76-14.27c.3-.73.54-1.04.83-1.04s.51.26.75.86l3.14,7.79c.75,1.84,1.48,3.6,2.18,5.29l.37.89c.6,1.43,1.23,2.22,1.87,2.36.25.06.55.08.92.08.46,0,.5.3.5.39,0,.35-.5.42-1.26.42"/><path class="cls-5" d="m129.24,70.61c0,.92-.11,1.79-.34,2.61-.09.32-.27.5-.55.56-.12.03-.42.05-.9.05-.75,0-1.87-.02-3.35-.07-1.48-.05-2.59-.07-3.32-.07-.32,0-.8,0-1.44.02-.65.03-1.12.05-1.45.05s-.46-.07-.46-.23c0-.14.4-.23,1.2-.27.35-.08.57-.49.66-1.26.08-.6.12-2.21.12-4.83v-4c0-2.68-.02-4.3-.05-4.84-.03-.55-.2-.92-.5-1.12-.23-.15-.64-.22-1.24-.22-.25,0-.38-.07-.38-.21s.16-.2.51-.2c.39,0,.97,0,1.74.02l1.4.05c.35,0,.87,0,1.56-.02.69-.03,1.21-.05,1.56-.05.32,0,.48.07.48.2s-.19.2-.57.23c-.24.02-.49.03-.74.04-.52.1-.8.53-.84,1.3-.03.51-.05,2.12-.05,4.81v4c0,1.66.02,2.79.07,3.39.06.81.2,1.32.41,1.5.39.33,1.31.5,2.78.5.99,0,1.72-.1,2.18-.3.64-.3,1-.87,1.1-1.7.03-.23.11-.34.25-.34.12,0,.18.13.18.39"/><path class="cls-5" d="m129.05,70.42h0,0Zm-8.28,3.08c.78,0,1.93.02,3.33.07,1.41.04,2.56.07,3.34.07.59,0,.78-.03.85-.04.13-.03.31-.1.4-.43.22-.79.34-1.65.34-2.55,0-.07,0-.11-.01-.15-.01.03-.02.07-.03.13-.1.9-.51,1.52-1.21,1.85-.5.21-1.26.32-2.26.32-1.53,0-2.48-.18-2.91-.55-.26-.22-.42-.76-.48-1.64-.05-.57-.07-1.62-.07-3.4v-4c0-2.63.02-4.29.05-4.82.05-.87.39-1.37,1.01-1.49.27-.01.52-.03.76-.04.09,0,.16-.02.22-.03-.03,0-.07,0-.11,0-.36,0-.88.02-1.55.05-.69.02-1.21.02-1.57.02l-1.41-.05c-.76-.01-1.34-.02-1.73-.02-.06,0-.12,0-.16,0,.01,0,.02,0,.04,0,.64,0,1.08.08,1.35.26.36.24.56.67.59,1.27.03.56.05,2.24.05,4.85v4c0,2.61-.04,4.25-.12,4.86-.1.86-.37,1.33-.82,1.43-.47.03-.73.06-.89.1.03,0,.07,0,.11,0,.32,0,.81-.01,1.44-.05.65-.02,1.13-.02,1.45-.02m6.67.54c-.78,0-1.94-.02-3.36-.07-1.39-.04-2.54-.07-3.32-.07-.32,0-.8,0-1.44.02-.63.03-1.12.05-1.45.05-.58,0-.66-.27-.66-.43,0-.3.35-.42,1.39-.47.29-.07.42-.62.47-1.08.08-.6.12-2.21.12-4.81v-4c0-2.6-.02-4.27-.05-4.83-.02-.47-.16-.79-.41-.96-.13-.09-.44-.19-1.14-.19-.53,0-.58-.29-.58-.41,0-.27.24-.4.7-.4.39,0,.98,0,1.74.02l1.4.05c.34,0,.86,0,1.55-.02.67-.03,1.2-.05,1.57-.05.56,0,.68.22.68.4,0,.37-.53.41-.75.43-.25.02-.5.03-.75.04-.12.03-.59.11-.65,1.11-.03.52-.05,2.18-.05,4.8v4c0,1.75.02,2.82.07,3.37.07,1.03.26,1.3.34,1.36.24.21.89.45,2.65.45.95,0,1.66-.09,2.1-.28.57-.27.89-.77.98-1.54.06-.45.31-.52.45-.52s.38.08.38.59c0,.95-.12,1.84-.35,2.66-.14.49-.46.65-.7.71-.14.03-.45.05-.94.05"/><path class="cls-5" d="m145.68,70.72c0,.93-.1,1.78-.3,2.52-.08.31-.22.49-.46.55-.09.03-.35.05-.78.05-.7,0-1.77-.02-3.19-.07-1.41-.05-2.46-.07-3.16-.07-.32,0-.81,0-1.45.02-.64.03-1.12.05-1.44.05s-.46-.07-.46-.23c0-.14.4-.23,1.19-.27.35-.07.58-.49.67-1.26.08-.6.12-2.21.12-4.83v-4c0-2.72-.02-4.33-.05-4.81-.05-.73-.38-1.16-.98-1.3-.22-.04-.52-.06-.9-.06-.26,0-.39-.07-.39-.21,0-.13.17-.2.51-.2.45,0,1.08,0,1.88.02l1.42.05,5.74-.02c.34-.03.78-.11,1.35-.23.09,0,.13.07.13.2,0,.16-.02.41-.07.73-.06.36-.09.61-.09.75-.05.57-.09,1.07-.14,1.5-.02.16-.1.25-.23.25-.12,0-.21-.24-.25-.73-.07-.7-.62-1.1-1.63-1.22-.49-.07-1.57-.09-3.25-.09-.11,0-.16.08-.16.23v5.74c0,.17.05.25.16.25,2.03,0,3.25-.02,3.67-.05.29-.02.49-.04.6-.07.21-.05.38-.14.51-.27.18-.2.31-.3.37-.3.11,0,.16.06.16.18,0,.2-.02.47-.07.82-.06.42-.1.7-.11.84-.06.88-.1,1.39-.1,1.52,0,.29-.07.43-.21.43-.12,0-.2-.14-.25-.43-.02-.2-.03-.4-.05-.6-.11-.51-.53-.81-1.28-.88-.44-.04-1.53-.07-3.26-.07-.09,0-.13.08-.13.23v5.32c0,.79.18,1.3.55,1.55.32.24,1.05.36,2.2.36,1.03,0,1.75-.09,2.15-.27.54-.24.88-.8,1.03-1.68.04-.22.13-.34.26-.34s.18.14.18.42"/><path class="cls-5" d="m144.6,59.64h0,0Zm-6.81,13.86c.75,0,1.85.02,3.17.07,1.41.05,2.48.07,3.18.07.58,0,.69-.03.71-.04.12-.03.26-.1.33-.41.2-.73.29-1.56.29-2.47,0-.07,0-.12,0-.15-.01.03-.02.07-.03.12-.17.95-.54,1.55-1.14,1.83-.43.19-1.18.29-2.23.29-1.22,0-1.96-.13-2.32-.4-.42-.28-.63-.84-.63-1.71v-5.32c0-.4.25-.43.33-.43,1.68,0,2.81.02,3.28.07.84.09,1.33.44,1.46,1.04.02.15.02.28.03.41l.02.21c.02.09.03.15.05.19,0-.04.01-.09.01-.17,0-.14.03-.66.09-1.54.02-.15.05-.43.11-.85.04-.31.06-.55.07-.72-.04.04-.1.09-.18.18-.15.16-.35.27-.61.33-.11.03-.31.05-.63.07-.42.03-1.65.05-3.68.05-.08,0-.36-.03-.36-.46v-5.74c0-.32.19-.43.36-.43,1.75,0,2.79.03,3.28.09,1.11.13,1.72.6,1.8,1.4.02.28.06.42.08.5,0,0,0-.01,0-.02.04-.43.09-.93.14-1.5,0-.13.03-.38.09-.76.04-.29.06-.53.06-.68-.52.11-.94.18-1.27.21l-5.76.03-1.43-.05c-.79-.01-1.42-.02-1.87-.02-.06,0-.11,0-.15,0,0,0,.02,0,.03,0,.38,0,.7.02.94.07.71.17,1.09.66,1.15,1.49.03.51.05,2.22.05,4.83v4c0,2.61-.04,4.24-.12,4.86-.1.86-.37,1.33-.82,1.43-.46.03-.72.06-.87.1.03,0,.06,0,.1,0,.34,0,.83-.02,1.43-.05.65-.02,1.14-.02,1.46-.02m6.35.54c-.7,0-1.78-.02-3.19-.07-1.32-.04-2.41-.07-3.16-.07-.32,0-.81,0-1.45.02-.6.03-1.1.05-1.44.05-.57,0-.66-.27-.66-.43,0-.3.35-.41,1.38-.47.29-.06.43-.62.48-1.08.08-.6.11-2.21.11-4.81v-4c0-2.59-.02-4.3-.05-4.8-.04-.64-.31-1-.83-1.12-.2-.04-.49-.06-.85-.06-.53,0-.59-.28-.59-.41,0-.18.12-.4.71-.4.46,0,1.09,0,1.88.02l1.42.05,5.73-.02c.31-.03.76-.11,1.31-.22h.04c.05,0,.33.01.33.4,0,.18-.02.43-.07.76-.07.44-.09.63-.09.72-.05.59-.1,1.09-.14,1.52-.03.32-.24.43-.43.43-.33,0-.41-.46-.45-.91-.06-.59-.54-.93-1.46-1.04-.46-.06-1.5-.09-3.19-.09,0,0,0,.02,0,.03v5.74s0,.04,0,.05c1.99,0,3.2-.02,3.61-.05.11,0,.43-.02.56-.06.18-.04.32-.11.41-.22.29-.32.42-.36.51-.36.22,0,.36.15.36.38,0,.2-.02.46-.07.84-.06.42-.1.7-.11.84-.08,1.07-.09,1.41-.09,1.5,0,.55-.25.63-.41.63-.35,0-.42-.45-.45-.59l-.02-.23c0-.13-.02-.25-.03-.38-.08-.4-.45-.63-1.1-.7-.44-.04-1.57-.07-3.17-.07,0,0,0,.02,0,.03v5.32c0,.71.16,1.18.46,1.38.2.15.72.33,2.09.33,1.24,0,1.81-.14,2.07-.26.47-.22.77-.72.92-1.54.09-.44.32-.51.45-.51.14,0,.38.08.38.62,0,.94-.1,1.81-.31,2.57-.09.38-.3.61-.6.69-.06.02-.23.05-.83.05"/><path class="cls-5" d="m174.33,73.51c0,.16-.2.25-.59.25-1.9,0-3.45-.04-4.66-.14-.44-.03-.66-.11-.66-.25,0-.03.07-.11.23-.25.17-.14.21-.46.13-.98l-1.37-10h-.09l-5,10.32c-.41.85-.7,1.27-.85,1.27-.14,0-.4-.38-.81-1.14-1.39-2.64-2.27-4.36-2.63-5.16-.31-.67-1.1-2.35-2.39-5.05h-.09l-1.2,9.04c-.04.35-.07.7-.07,1.07,0,.56.56.84,1.65.84.23,0,.34.05.34.16,0,.16-.18.25-.55.25s-.84,0-1.4-.02l-1.01-.04c-.25,0-.62,0-1.12.02-.51.03-.89.04-1.15.04s-.41-.09-.41-.25c0-.09.16-.16.46-.18.2-.01.4-.03.59-.04.46-.1.78-.69.95-1.8l2.27-14.81c.06-.39.19-.59.39-.59.18,0,.39.24.62.7l6.26,12.82,6.24-12.97c.16-.37.33-.55.5-.55.2,0,.34.24.42.7l2.09,14.04c.09.67.18,1.12.28,1.34.17.52.45.84.85.96.49.15.96.22,1.42.22.24,0,.37.05.37.16"/><path class="cls-5" d="m150.83,73.51h0Zm17.85-.15c.07.02.19.05.4.06,1.18.09,2.7.14,4.65.14.07,0,.13,0,.18,0-.45,0-.92-.08-1.43-.23-.47-.15-.79-.51-.98-1.09-.1-.22-.19-.68-.28-1.38l-2.09-14.04c-.07-.43-.19-.53-.22-.53-.04,0-.16.09-.32.43l-6.42,13.35-6.44-13.19c-.29-.59-.44-.59-.44-.59-.08,0-.15.17-.19.42l-2.27,14.81c-.18,1.2-.55,1.85-1.11,1.96l-.25.02c-.12,0-.25.02-.37.03-.07,0-.13.01-.17.02.03,0,.07,0,.11,0,.26,0,.63-.01,1.14-.04.51-.02.88-.02,1.13-.02l1.02.04c.56.02,1.03.02,1.39.02.07,0,.12,0,.16,0-1.2,0-1.81-.36-1.81-1.04,0-.35.02-.7.07-1.09l1.22-9.22h.39l.05.11c1.18,2.47,2.05,4.31,2.39,5.05.38.82,1.26,2.55,2.63,5.15.38.71.56.94.63,1.01.08-.07.27-.31.67-1.14l5.05-10.43h.39l1.4,10.17c.09.6.02.97-.21,1.16-.04.03-.06.06-.09.08m5.05.6c-1.96,0-3.49-.05-4.68-.14-.25-.01-.84-.05-.84-.44,0-.11.07-.2.29-.4.05-.04.16-.2.07-.8l-1.31-9.5-4.78,9.87c-.62,1.28-.85,1.38-1.03,1.38-.21,0-.42-.2-.98-1.24-1.37-2.61-2.26-4.34-2.64-5.17-.32-.69-1.1-2.35-2.16-4.58l-1.13,8.52c-.05.37-.07.71-.07,1.04,0,.43.49.64,1.46.64.47,0,.54.23.54.36,0,.2-.13.45-.75.45-.37,0-.84,0-1.41-.02l-1.01-.04c-.24,0-.61,0-1.11.02-.51.03-.89.04-1.16.04-.57,0-.61-.34-.61-.45,0-.33.48-.37.64-.38.13,0,.25-.02.37-.03l.23-.02c.34-.07.61-.64.77-1.63l2.27-14.81c.08-.51.28-.76.59-.76.27,0,.52.25.8.81l6.08,12.45,6.06-12.6c.2-.45.42-.66.68-.66.46,0,.58.66.61.87l2.09,14.04c.09.65.18,1.09.26,1.29.15.47.39.74.72.85.49.14.93.21,1.36.21.47,0,.57.2.57.36,0,.2-.14.45-.79.45"/><path class="cls-5" d="m173.23,78.09c-.19,0-.34-.06-.45-.19-.09-.11-.13-.23-.13-.38s.04-.28.13-.38c.11-.13.26-.2.45-.2.17,0,.31.04.42.15.11.1.17.24.17.41s-.06.31-.16.43c-.11.12-.25.17-.43.17m.45,3.28v1.78c0,1.16.02,1.89.05,2.18.04.34.17.53.4.56.19.03.35.04.46.04l-.91.12h-.43s-.41,0-.41,0l-.59.02c.38-.21.47-.4.51-.74.03-.26.05-.99.05-2.18v-1.78c0-1.23,0-1.96-.02-2.18-.02-.32-.14-.51-.35-.57-.12-.03-.22-.04-.32-.04l.71-.12h.41s.4,0,.4,0l.6-.02c-.4.21-.53.41-.55.75-.01.22-.02.95-.02,2.18m-9.51,4.85c-.54,0-.99-.09-1.37-.28-.1-.05-.15-.18-.15-.38,0-.58.02-.97.06-1.15.15.18.15.3.17.41.14.69.65,1.03,1.52,1.03.46,0,.83-.15,1.1-.44.24-.25.36-.55.36-.91s-.08-.64-.25-.88c-.16-.26-.47-.57-.92-.93l-.46-.38c-.51-.41-.87-.81-1.06-1.16-.18-.31-.26-.65-.26-1.02,0-.55.19-.98.57-1.32.38-.34.9-.51,1.54-.51.33,0,.65.03.95.1.15.03.27.05.36.05l.08.37c-.01.23-.02.49-.02.77,0,.15-.02.23-.07.23-.1-.35-.15-.51-.22-.64-.19-.36-.62-.54-1.27-.54-.36,0-.66.11-.9.32-.24.21-.35.49-.35.85,0,.29.08.55.25.79.17.23.5.53.99.91l.29.22c.58.45.98.86,1.19,1.23.2.32.3.7.3,1.14,0,.71-.29,1.27-.87,1.68-.41.28-.92.43-1.53.43m-10.49-3.07v-1.78c0-1.23,0-1.96-.02-2.18-.02-.32-.17-.52-.44-.58-.09-.02-.21-.03-.34-.03l.82-.12h.41s2.33,0,2.33,0c.19,0,.33-.02.44-.05l.11.52c0,.18-.03.4-.05.66-.16-.17-.17-.29-.22-.38-.08-.18-.33-.3-.72-.34-.18-.02-.65-.03-1.4-.03l-.06,2.89c.99.1,1.53.09,1.68.08.25-.02.41-.07.49-.15l.12.52c-.02.29-.04.5-.04.64-.24-.42-.42-.54-.71-.58-.32-.04-.8-.05-1.46-.05l-.07,2.69c.02.34.09.57.23.67.14.09.47.15.96.15s.81-.03.98-.11c.24-.1.39-.34.46-.72.15.31.11.63.02.98-.2.25-.34.26-.55.26-.62,0-1.2-.02-1.73-.03l-.79-.03h-.4s-.59.03-.59.03c.37-.21.47-.4.52-.74.03-.26.05-.99.05-2.18m-8.43-4.28v4.28c0,1.16.02,1.89.05,2.18.04.34.17.53.4.56.2.03.35.04.46.04l-.91.12h-.43s-.41,0-.41,0l-.59.02c.38-.21.48-.4.52-.74.04-.26.05-.99.05-2.18v-4.28l-1.51.02c-.27,0-.46.02-.57.04-.22.05-.37.14-.47.28l-.12.24c-.2-.1-.12-.45.02-.96l.26-.13c.09.04.19.05.29.06.38.03.65.05.81.05h3.82c.26,0,.5-.01.71-.05l.29-.05.03.75v.48c-.2-.51-.62-.69-1.43-.71l-1.28-.02Zm-9.81-.78c-.19,0-.34-.06-.45-.19-.09-.11-.13-.23-.13-.38s.04-.28.13-.38c.11-.13.26-.2.45-.2.17,0,.31.04.42.15.11.1.17.24.17.41s-.05.31-.16.43c-.11.12-.25.17-.43.17m.45,3.28v1.78c0,1.16.01,1.89.05,2.18.04.34.17.53.4.56.2.03.35.04.45.04l-.9.12h-.43s-.41,0-.41,0l-.59.02c.38-.21.48-.4.52-.74.04-.26.05-.99.05-2.18v-1.78c0-1.23,0-1.96-.02-2.18-.02-.32-.13-.51-.34-.57-.12-.03-.22-.04-.32-.04l.71-.12h.41s.39,0,.39,0l.6-.02c-.4.21-.53.41-.55.75-.01.22-.02.95-.02,2.18m-9.51,4.85c-.53,0-.99-.09-1.36-.28-.1-.05-.15-.18-.15-.38,0-.58.02-.97.06-1.15.15.18.16.3.18.41.14.69.64,1.03,1.51,1.03.46,0,.83-.15,1.1-.44.24-.25.36-.55.36-.91s-.08-.64-.25-.88c-.17-.26-.47-.57-.92-.93l-.46-.38c-.51-.41-.87-.81-1.07-1.16-.17-.31-.26-.65-.26-1.02,0-.55.19-.98.57-1.32.38-.34.89-.51,1.54-.51.34,0,.65.03.95.1.15.03.27.05.36.05l.08.37c-.01.23-.02.49-.02.77,0,.15-.02.23-.07.23-.1-.35-.15-.51-.22-.64-.2-.36-.62-.54-1.27-.54-.36,0-.66.11-.9.32-.24.21-.36.49-.36.85,0,.29.09.55.26.79.17.23.5.53.99.91l.28.22c.58.45.98.86,1.19,1.23.2.32.3.7.3,1.14,0,.71-.3,1.27-.87,1.68-.41.28-.92.43-1.54.43m-11.14-7.27v3.3c.25.23.61.28,1.14.28.32,0,.58-.07.77-.2.42-.28.62-.8.62-1.55,0-.64-.16-1.13-.47-1.48-.31-.36-.74-.54-1.29-.54-.32,0-.55.02-.68.06l-.08.12Zm-.81,4.2v-1.78c0-1.23-.01-1.96-.02-2.18-.02-.32-.17-.52-.44-.58-.09-.02-.22-.03-.35-.03l.82-.12h.42s.51,0,.51,0l.69-.02c.83,0,1.45.15,1.87.45.47.33.7.79.7,1.37,0,.8-.41,1.58-1.23,2.34l1.15,1.45c.39.49.71.86.97,1.13.39.42.81.66,1.24.73.13.02.26.03.4.03l-.87.14c-.49,0-.86-.06-1.1-.19-.19-.1-.4-.28-.63-.55-.12-.12-.36-.43-.75-.94l-1.11-1.49-1.39-.08-.07.32c0,1.16.01,1.89.05,2.18.04.34.17.53.4.56.19.03.35.04.45.04l-.91.12h-.43s-.96.02-.96.02c.38-.21.48-.4.52-.74.03-.26.05-.99.05-2.18m-9.78,0v-1.78c0-1.23,0-1.96-.02-2.18-.02-.32-.17-.52-.44-.58-.1-.02-.21-.03-.35-.03l.81-.12h.42s2.34,0,2.34,0c.18,0,.33-.02.44-.05l.1.52c0,.18-.02.4-.06.66-.15-.17-.17-.29-.21-.38-.08-.18-.32-.3-.72-.34-.18-.02-.65-.03-1.4-.03l-.06,2.89c.99.1,1.52.09,1.68.08.25-.02.41-.07.49-.15l.11.52c-.03.29-.04.5-.04.64-.25-.42-.42-.54-.72-.58-.32-.04-.8-.05-1.45-.05l-.07,2.69c.02.34.09.57.22.67.14.09.47.15.96.15s.8-.03.98-.11c.24-.1.39-.34.46-.72.15.31.11.63.02.98-.21.25-.35.26-.55.26-.62,0-1.2-.02-1.73-.03l-.79-.03h-.41s-.59.03-.59.03c.38-.21.48-.4.52-.74.04-.26.05-.99.05-2.18m-10.87-3.47l1.96,5.17c.29-.66.69-1.67,1.22-3.04.53-1.33.85-2.19.96-2.56.06-.2.09-.32.09-.39-.22-.25-.35-.27-.53-.27l.73-.12h.39s.3,0,.3,0l.49-.02c-.16.14-.32.18-.44.26-.16.11-.35.43-.56.95l-1.14,2.74c-.7,1.67-1.14,2.69-1.31,3.06l-.29.61c-.2.17-.25.12-.3.03-.03-.05-.11-.22-.21-.5l-2.5-6.19c-.1-.27-.21-.45-.32-.57-.09-.09-.23-.15-.41-.21-.1-.03-.23-.04-.39-.04l.92-.12h.46s.37,0,.37,0l.58-.02c.19,0,.28.03.28.07l-.3.08c-.28.08-.31.15-.31.24,0,.07.09.36.27.84m-7.89-1.59c-.19,0-.34-.06-.45-.19-.08-.11-.13-.23-.13-.38s.04-.28.13-.38c.12-.13.26-.2.45-.2.16,0,.31.04.42.15.12.1.17.24.17.41s-.05.31-.16.43c-.1.12-.25.17-.42.17m.44,3.28v1.78c0,1.16.02,1.89.05,2.18.04.34.17.53.4.56.19.03.35.04.45.04l-.91.12h-.42s-.41,0-.41,0l-.59.02c.38-.21.47-.4.52-.74.03-.26.05-.99.05-2.18v-1.78c0-1.23,0-1.96-.02-2.18-.02-.32-.14-.51-.35-.57-.11-.03-.22-.04-.32-.04l.7-.12h.41s.39,0,.39,0l.6-.02c-.4.21-.53.41-.55.75-.02.22-.02.95-.02,2.18m-13.92-1.51l.13,4.84c.01.33.02.55.05.67.06.29.17.46.35.5.14.04.31.06.51.06l-.82.12h-.35s-.36,0-.36,0l-.63.02c.06-.14.21-.16.35-.2.15-.04.24-.23.28-.57,0-.1.02-.34.02-.71v-5.79c.01-.34.05-.51.12-.51.03,0,.15.11.36.33l3.24,3.46,2.44,2.64-.11-5.13c0-.34-.04-.57-.09-.7-.04-.13-.14-.21-.29-.25-.15-.04-.32-.06-.51-.06l.79-.12h.4s.31,0,.31,0l.55-.02c-.33.2-.44.29-.49.41-.04.12-.06.34-.06.66l-.02,5.92c0,.47-.03.71-.1.71-.05,0-.31-.21-.74-.65-.73-.72-1.62-1.63-2.66-2.73-.93-.99-1.82-1.96-2.66-2.9m-10.96-2.3c-.2,0-.34-.06-.43-.18-.09-.12-.14-.26-.14-.41,0-.14.05-.27.14-.39.1-.13.25-.19.44-.19.17,0,.31.05.42.15.12.1.17.23.17.39,0,.18-.06.33-.16.45-.1.11-.25.17-.43.17m2.75,0c-.19,0-.33-.06-.43-.18-.09-.12-.14-.26-.14-.41,0-.14.04-.27.14-.39.1-.13.25-.19.44-.19.17,0,.31.05.41.15.12.1.17.23.17.39,0,.18-.05.33-.16.45-.11.11-.25.17-.44.17m-4.55,5.28v-1.47c0-1.23,0-1.96-.02-2.18-.02-.32-.16-.52-.44-.58-.09-.02-.21-.03-.35-.03l.81-.12h.44s.42,0,.42,0l.59-.02c-.41.2-.53.4-.55.75-.01.23-.03.95-.03,2.18v1.41c0,1.18.26,2.02.77,2.49.39.37.9.56,1.53.56.67,0,1.2-.24,1.59-.71.4-.49.6-1.32.6-2.49v-1.26c0-1.23,0-1.96-.02-2.18-.02-.32-.17-.52-.44-.58-.09-.02-.2-.03-.34-.03l.76-.12h.4s.34,0,.34,0l.52-.02c-.4.22-.53.41-.55.75-.01.23-.02.95-.02,2.18v1.08c0,1.46-.32,2.47-.94,3.02-.57.5-1.27.75-2.09.75-.89,0-1.59-.24-2.11-.72-.59-.56-.88-1.44-.88-2.66m-15.87.31v-1.78c0-1.23,0-1.96-.02-2.18-.02-.32-.16-.52-.44-.58-.09-.02-.21-.03-.35-.03l.82-.12h.42s2.51,0,2.51,0c.12,0,.27-.01.45-.04l.12.51c0,.18-.02.4-.05.66-.15-.14-.18-.27-.24-.4-.09-.21-.32-.31-.69-.33l-1.57-.03-.09,2.9,1.38.08h.5c.21-.03.35-.09.43-.2l.08.55c-.02.29-.04.51-.04.68-.16.02-.17-.1-.21-.26-.07-.21-.25-.33-.53-.37-.16-.02-.68-.03-1.54-.03l-.07.95c0,1.16.02,1.89.05,2.18.04.34.17.53.4.56.2.03.35.04.46.04l-.91.12h-.43s-.4,0-.4,0l-.59.02c.38-.21.48-.4.52-.74.04-.26.05-.99.05-2.18m-7.18-1.78v1.78c0,1.16.01,1.89.05,2.18.04.34.17.53.4.56.2.03.35.04.46.04l-.9.12h-.43s-.41,0-.41,0l-.59.02c.39-.21.48-.4.52-.74.03-.26.05-.99.05-2.18v-1.78c0-1.23,0-1.96-.02-2.18-.02-.32-.13-.51-.35-.57-.11-.03-.22-.04-.32-.04l.7-.12h.41s.4,0,.4,0l.6-.02c-.4.21-.53.41-.55.75-.02.22-.02.95-.02,2.18m-12.08,1.78v-1.78c0-1.23,0-1.96-.02-2.18-.02-.32-.17-.52-.44-.58-.09-.02-.21-.03-.35-.03l.79-.12h.41s.41,0,.41,0l.58-.02c-.4.21-.53.41-.55.75-.01.22-.02.95-.02,2.18v.61l2.43-2.44c.37-.39.55-.63.55-.73-.2-.23-.23-.26-.23-.29l.49-.05h.4s.41,0,.41,0l.57-.02c-.11.14-.31.19-.53.29-.23.09-.59.38-1.09.86-1.25,1.18-2,1.92-2.24,2.21.14.17.6.63,1.35,1.39.78.8,1.27,1.28,1.46,1.45.46.42.76.69.9.8.18.14.39.26.62.35.21.09.42.13.63.13l-.61.14c-.33,0-.56,0-.71-.02-.24-.02-.46-.09-.65-.19-.12-.06-.31-.21-.59-.42-.21-.18-.73-.69-1.55-1.56-.77-.82-1.29-1.39-1.56-1.72l-.05.99c0,1.16.02,1.89.05,2.18.04.34.17.53.4.56l.38.04-.81.12h-.43s-.41,0-.41,0l-.57.02c.38-.21.48-.4.52-.74.04-.26.05-.99.05-2.18m-10.11-.41h1.95l-.93-2.8-1.05,2.73.03.07Zm-1.43,2.23l2.31-6.27c.1-.26.17-.4.23-.4s.13.12.22.37c.58,1.52,1.38,3.55,2.38,6.09.27.67.59,1.06.95,1.14.12.03.23.04.34.04-.77.14-1.3.14-1.7.12-.2,0-.31-.03-.31-.07.17-.1.19-.19.13-.34l-.95-2.48-2.28-.06-.71,1.87c-.1.28-.14.5-.14.68,0,.2.13.29.39.29l-.39.12h-.35s-.44,0-.44,0l-.71.02c.55-.21.83-.53,1.05-1.11m-10.02-5.29l1.96,5.17c.29-.66.69-1.67,1.22-3.04.53-1.33.84-2.19.95-2.56.07-.2.1-.32.1-.39-.22-.25-.35-.27-.52-.27l.72-.12h.39s.3,0,.3,0l.49-.02c-.15.14-.31.18-.44.26-.16.11-.35.43-.56.95l-1.14,2.74c-.7,1.67-1.14,2.69-1.32,3.06l-.28.61c-.2.17-.25.12-.29.03-.04-.05-.11-.22-.21-.5l-2.5-6.19c-.11-.27-.21-.45-.31-.57-.09-.09-.23-.15-.42-.21-.09-.03-.22-.04-.39-.04l.92-.12h.46s.37,0,.37,0l.58-.02c.18,0,.27.03.27.07l-.31.08c-.27.08-.32.15-.32.24,0,.07.09.36.28.84"/><path class="cls-5" d="m61.47,76.5c-.17,0-.28.05-.36.15-.08.1-.12.21-.12.33,0,.13.04.25.12.34.08.1.19.14.36.14.16,0,.27-.05.36-.14.09-.1.14-.23.14-.38,0-.14-.04-.23-.14-.32-.09-.08-.2-.12-.35-.12m0,1.17c-.23,0-.4-.07-.51-.22-.1-.13-.16-.3-.16-.47,0-.16.05-.31.16-.45.12-.15.29-.23.52-.23.2,0,.36.06.48.17.14.12.2.27.2.47s-.07.38-.19.52c-.13.14-.3.2-.51.2m2.76-1.17c-.17,0-.29.05-.36.15-.08.1-.12.21-.12.33,0,.13.04.25.12.34.08.1.19.14.35.14s.27-.05.37-.14c.09-.09.13-.22.13-.38,0-.14-.04-.23-.14-.32-.09-.08-.2-.12-.35-.12m-.01,1.17c-.22,0-.39-.07-.5-.22-.1-.13-.16-.29-.16-.47,0-.17.05-.32.16-.45.11-.15.29-.23.52-.23.2,0,.36.06.48.17.14.12.2.27.2.47,0,.21-.06.39-.19.52-.13.14-.31.2-.51.2m21.69-.63c-.16,0-.28.05-.38.16-.07.09-.1.19-.1.32s.03.23.1.32c.09.1.21.16.38.16.15,0,.27-.05.35-.14.09-.1.14-.22.14-.36s-.04-.25-.14-.33c-.08-.08-.2-.12-.35-.12m0,1.16c-.22,0-.39-.07-.53-.23-.1-.13-.15-.28-.15-.45s.05-.32.15-.45c.14-.16.31-.24.53-.24.2,0,.37.06.48.18.13.12.2.28.2.48s-.06.36-.19.5c-.12.13-.29.2-.5.2m49.55-1.16c-.16,0-.28.05-.37.16-.08.09-.11.19-.11.32s.03.23.11.32c.09.11.21.16.37.16.15,0,.27-.05.36-.14.09-.1.13-.22.13-.36,0-.14-.05-.25-.14-.33-.09-.08-.2-.12-.35-.12m0,1.16c-.22,0-.4-.08-.52-.23-.1-.12-.16-.27-.16-.45s.05-.33.16-.45c.12-.15.3-.23.52-.23.2,0,.36.06.49.18.13.12.2.29.2.48s-.06.37-.19.5c-.13.14-.3.21-.5.21m37.79-1.16c-.16,0-.28.05-.37.16-.07.09-.11.19-.11.32s.03.23.11.32c.09.11.21.16.37.16.15,0,.27-.05.36-.14.09-.1.14-.22.14-.36s-.05-.25-.14-.33c-.09-.08-.2-.12-.36-.12m0,1.16c-.22,0-.4-.08-.52-.23-.1-.12-.15-.27-.15-.45s.05-.32.15-.45c.13-.15.3-.23.52-.23.2,0,.36.06.49.17.14.13.21.29.21.48s-.06.36-.19.5c-.13.14-.3.21-.51.21m-57.89,4.01c.24.19.58.23,1.04.23.3,0,.54-.06.71-.18.39-.26.58-.74.58-1.47,0-.61-.15-1.08-.45-1.42-.3-.34-.7-.5-1.21-.5-.29,0-.5.01-.62.04l-.05.07v3.23Zm1.04.43c-.51,0-.92-.05-1.2-.31l-.03-.03v-3.38l.12-.18h.03c.14-.05.36-.07.71-.07.57,0,1.03.19,1.36.57.33.37.5.89.5,1.55,0,.79-.22,1.34-.66,1.64-.21.14-.49.21-.82.21m-101.88,0h1.72l-.8-2.41-.92,2.41Zm2,.2h-2.15l-.08-.17,1.16-3.03,1.06,3.2Zm98.73-.12l1.52.09,1.14,1.53c.41.53.63.81.74.93.22.26.42.43.6.53.23.12.57.18,1.05.18l.2-.03c-.36-.11-.71-.35-1.04-.7-.26-.27-.59-.65-.97-1.13l-1.21-1.53.07-.06c.8-.73,1.2-1.49,1.2-2.26,0-.54-.22-.98-.66-1.29-.4-.28-1-.43-1.81-.43l-1.2.03h-.42s-.24.03-.24.03c.15.09.29.27.31.59.01.2.02.9.02,2.19v1.78c0,1.18-.02,1.92-.05,2.2-.03.25-.09.44-.28.62l.62-.02h.43s.24-.02.24-.02c-.16-.1-.25-.29-.29-.58-.03-.28-.05-.96-.05-2.2l.09-.43Zm-1.79,3.47l.36-.2c.36-.2.43-.36.47-.67.02-.18.05-.71.05-2.17v-1.78c0-1.29-.01-1.98-.02-2.17-.02-.28-.13-.43-.36-.48-.1-.03-.24-.03-.33-.03v-.2s.8-.12.8-.12h.44s1.2-.02,1.2-.02c.86,0,1.49.15,1.93.47.49.35.74.84.74,1.45,0,.81-.4,1.6-1.2,2.35l1.09,1.38c.38.47.7.85.96,1.12.38.4.78.64,1.19.7.12.02.24.03.38.03l.02.2-.87.14h-.02c-.52,0-.89-.07-1.14-.2-.2-.11-.43-.3-.65-.57-.11-.12-.34-.4-.75-.94l-1.08-1.46-1.26-.07-.05.24c0,1.21.02,1.88.05,2.15.05.39.2.46.32.47.22.03.36.04.44.04v.2s-.89.12-.89.12h-.44s-1.37.04-1.37.04Zm-69.88-7.59c.15.09.29.27.31.59.02.2.02.86.02,2.19v1.78c0,1.24-.02,1.94-.05,2.2-.03.28-.11.46-.28.62l.66-.02h.43s.24-.02.24-.02c-.13-.08-.25-.25-.29-.58-.04-.29-.05-.99-.05-2.2l.08-1.06h.09c.81,0,1.37.01,1.55.03.32.04.53.19.62.43v.04s.01.03.02.04c0-.13.02-.28.03-.47l-.05-.35c-.09.05-.2.08-.34.1h-.51s-1.48-.07-1.48-.07l.09-3.1,1.67.03c.42.02.67.14.78.38.01.03.03.06.04.09.01.03.03.06.04.09.01-.13.02-.26.02-.39l-.09-.4c-.14.02-.27.03-.37.03h-2.51s-.42,0-.42,0l-.23.04Zm-.75,7.59l.36-.2c.36-.2.44-.36.47-.67.03-.25.05-.96.05-2.17v-1.78c0-1.32,0-1.97-.02-2.17-.01-.28-.13-.44-.36-.49-.08-.02-.18-.03-.33-.03v-.2s.8-.12.8-.12h.43s2.51,0,2.51,0c.12,0,.27-.01.44-.04h.09s.14.6.14.6h0c0,.23-.02.45-.05.68l-.02.19-.14-.13c-.14-.12-.19-.24-.23-.35-.01-.03-.02-.05-.04-.08-.08-.17-.28-.25-.61-.27l-1.47-.02-.08,2.7,1.28.07h.49c.17-.03.3-.08.35-.15l.14-.2.11.79c-.02.33-.03.54-.03.69v.09h-.09c-.24.03-.28-.16-.31-.3-.06-.18-.21-.28-.45-.31-.16-.02-.69-.03-1.43-.03l-.06.86c0,1.17.02,1.89.05,2.16.03.29.14.45.31.47.18.02.33.04.44.04v.2s-.89.12-.89.12h-.44s-1.41.04-1.41.04Zm101.68-7.42v4.38c0,1.29-.02,1.94-.05,2.2-.03.28-.1.46-.28.61l.66-.02h.43s.24-.02.24-.02c-.15-.1-.25-.29-.28-.58-.04-.3-.05-1.06-.05-2.2v-4.38l1.38.02c.66.01,1.08.15,1.32.45v-.12s-.02-.63-.02-.63l-.18.03c-.21.03-.46.05-.73.05h-3.82c-.17,0-.44-.02-.81-.05-.11,0-.2-.02-.28-.05l-.18.09c-.08.3-.15.57-.12.71l.05-.1c.11-.17.29-.27.53-.33.12-.02.31-.03.59-.04l1.61-.02Zm-1.08,7.42l.36-.2c.36-.2.43-.36.47-.67.04-.25.05-.92.05-2.17v-4.18l-1.4.02c-.27,0-.45.02-.56.04-.19.04-.32.12-.4.24l-.16.32-.09-.04c-.29-.14-.17-.6-.03-1.08v-.04s.35-.17.35-.17l.04.02c.07.03.16.05.26.05.37.03.64.05.8.05h3.82c.26,0,.5-.01.7-.04l.4-.07.04.86-.02,1-.18-.48c-.17-.45-.54-.63-1.32-.64l-1.18-.02v4.18c0,1.13.02,1.88.05,2.17.05.39.2.46.31.47.18.03.33.04.44.04v.2s-.9.12-.9.12h-.44s-1.41.04-1.41.04Zm-8.56-7.59c.16.1.25.3.26.59.01.23.02,1.03.02,2.19v1.78c0,1.22-.02,1.94-.05,2.2-.03.28-.11.46-.28.62l.66-.02h.43s.23-.02.23-.02c-.16-.1-.25-.29-.29-.58-.04-.28-.05-.91-.05-2.2v-1.78c0-1.18,0-1.96.02-2.18.02-.28.1-.47.29-.63l-.64.02h-.42s-.2.03-.2.03Zm-.79,7.59l.36-.2c.36-.2.43-.36.47-.67.04-.26.05-.97.05-2.17v-1.78c0-1.15,0-1.94-.02-2.17-.03-.41-.21-.46-.27-.47-.1-.03-.19-.04-.29-.04l-.02-.2.7-.12h.43s1.43-.04,1.43-.04l-.39.2c-.4.21-.48.39-.5.67-.01.22-.02,1-.02,2.17v1.78c0,1.26.01,1.91.05,2.17.05.39.2.46.32.47.22.03.36.04.44.04v.2s-.89.12-.89.12h-.44s-1.4.04-1.4.04Zm38.57-7.59c.13.09.25.26.27.59.02.22.02.98.02,2.19v1.78c0,1.11-.02,1.91-.05,2.2-.03.26-.09.44-.28.62l.66-.02h.43s.23-.02.23-.02c-.16-.1-.25-.29-.28-.58-.03-.3-.05-1.04-.05-2.2v-1.78c0-1.13,0-1.94.02-2.19.01-.27.1-.46.3-.63l-.64.02h-.41s-.21.03-.21.03Zm-.78,7.59l.36-.2c.35-.2.42-.36.46-.67.03-.28.05-1.07.05-2.17v-1.78c0-1.52-.01-2.02-.02-2.17-.02-.41-.21-.46-.27-.48-.09-.03-.19-.04-.29-.04l-.02-.2.71-.12h.43s1.42-.04,1.42-.04l-.39.2c-.36.19-.48.35-.5.67-.01.24-.02,1.05-.02,2.18v1.78c0,1.15.02,1.88.05,2.17.04.39.2.46.31.47.17.02.33.04.44.04v.2s-.89.12-.89.12h-.44s-1.4.04-1.4.04Zm-86.56-7.59c.16.1.25.3.27.59.01.21.02.84.02,2.19v1.78c0,1.21-.02,1.93-.05,2.2-.03.25-.09.44-.28.62l.66-.02h.43s.24-.02.24-.02c-.16-.1-.25-.29-.29-.58-.04-.32-.05-1.08-.05-2.2v-1.78c0-1.26,0-1.97.03-2.19.02-.28.1-.47.29-.63l-.64.02h-.42s-.2.03-.2.03Zm-.79,7.59l.36-.2c.36-.2.43-.36.47-.67.03-.26.05-.99.05-2.17v-1.78c0-1.32,0-1.97-.02-2.17-.03-.41-.21-.46-.27-.47-.09-.03-.18-.04-.29-.04l-.02-.2.7-.12h.43s1.43-.04,1.43-.04l-.39.2c-.4.21-.48.38-.5.67-.02.21-.02.92-.02,2.17v1.78c0,1.1.02,1.87.05,2.17.05.39.2.46.31.47.17.02.33.04.44.04v.2s-.89.12-.89.12h-.44s-1.4.04-1.4.04Zm-48.95-7.6c.16.1.25.3.27.59.02.22.02.94.02,2.19v1.78c0,1.27-.01,1.94-.05,2.2-.04.26-.1.45-.28.62l.66-.02h.44s.23-.02.23-.02c-.15-.1-.25-.29-.29-.58-.03-.28-.05-.93-.05-2.2v-1.78c0-1.28,0-1.97.02-2.19.02-.28.1-.46.29-.63l-.64.02h-.41s-.2.03-.2.03Zm-.8,7.6l.37-.2c.35-.19.43-.34.47-.67.03-.24.05-.91.05-2.17v-1.78c0-1.25,0-1.96-.02-2.17-.03-.37-.17-.45-.27-.48-.09-.03-.19-.04-.3-.04l-.02-.2.7-.12h.43s1.43-.04,1.43-.04l-.39.2c-.4.21-.48.39-.49.67-.02.21-.02.93-.02,2.17v1.78c0,1.25.01,1.9.05,2.17.05.39.2.46.31.47.22.03.36.04.44.04v.2s-.89.12-.89.12h-.45s-1.41.04-1.41.04Zm-10.47-7.6c.15.09.29.26.31.59.01.25.02,1.07.02,2.19v1.78c0,1.22-.02,1.94-.05,2.2-.03.25-.09.44-.28.62l.64-.02h.43s.21-.02.21-.02c-.16-.1-.25-.29-.29-.58-.03-.31-.05-1.07-.05-2.2l.05-.98-.05.05v-.85c0-1.3,0-1.97.02-2.19.02-.28.1-.47.29-.63l-.63.02h-.42s-.21.02-.21.02Zm1.13,3.45l.04.05c.27.33.8.91,1.56,1.72.73.78,1.3,1.36,1.54,1.55.21.16.44.34.57.41.18.1.38.16.61.18.14.01.38.02.7.02l.1-.02c-.05-.02-.11-.04-.16-.06-.22-.09-.44-.21-.64-.36-.14-.11-.43-.37-.91-.81-.21-.19-.75-.73-1.46-1.46-.8-.81-1.21-1.23-1.35-1.4l-.05-.07.06-.06c.25-.3,1.03-1.06,2.25-2.22.5-.48.88-.78,1.12-.88.05-.02.09-.04.14-.06.02,0,.04-.02.07-.03h-.62s-.4,0-.4,0l-.31.03s.02.03.04.04l.12.13v.04c0,.09-.07.26-.58.8l-2.42,2.43Zm-1.88,4.15l.36-.2c.36-.2.43-.36.47-.67.04-.26.05-.97.05-2.17v-1.78c0-1.31,0-1.99-.02-2.18-.02-.28-.13-.43-.36-.48-.1-.03-.23-.03-.33-.03v-.2s.78-.12.78-.12h.43s1.42-.04,1.42-.04l-.39.2c-.4.21-.48.39-.49.67-.01.21-.02.9-.02,2.17v.36l2.26-2.27c.39-.41.49-.57.51-.63l-.06-.07c-.14-.16-.16-.19-.16-.25v-.09l.58-.06h.41s1.19-.03,1.19-.03l-.14.17c-.11.13-.25.19-.43.26-.04.02-.09.04-.14.06-.15.06-.46.26-1.06.84-1.13,1.07-1.88,1.81-2.18,2.14.18.2.59.62,1.28,1.32.7.72,1.24,1.26,1.45,1.45.47.44.76.69.89.79.19.14.39.25.59.34.2.08.4.13.59.13h.86l-1.45.34c-.35,0-.59,0-.74-.02-.25-.02-.48-.09-.69-.21-.11-.06-.29-.18-.6-.43-.25-.21-.81-.78-1.56-1.57-.63-.68-1.1-1.19-1.4-1.54l-.03.74c0,1.12.02,1.87.05,2.17.05.43.25.46.32.47l1.17.12-1.6.24h-.44s-1.39.04-1.39.04Zm-8.02-7.76s-.07.13-.14.3l-2.31,6.27c-.17.46-.38.75-.7.96l.7-.02h.34s.05,0,.05,0c-.11-.09-.13-.21-.13-.3,0-.19.05-.42.15-.71l.74-1.94,2.42.07.98,2.54c.05.14.05.25-.03.34.03,0,.07,0,.11,0,.31.01.67.02,1.14-.04-.31-.16-.58-.54-.82-1.13-.86-2.17-1.66-4.22-2.38-6.09-.06-.15-.1-.23-.13-.27m-4.19,7.76l.56-.21c.51-.19.78-.48.99-1.05l2.31-6.27c.13-.35.21-.46.32-.46.09,0,.18.07.32.43.72,1.87,1.52,3.92,2.38,6.09.26.64.55,1.01.88,1.08.1.02.21.04.31.04l.02.2c-.83.16-1.41.14-1.73.12-.18,0-.4-.02-.4-.17v-.06l.05-.03c.13-.07.13-.11.09-.22l-.93-2.42-2.14-.06-.69,1.8c-.09.27-.14.48-.14.64,0,.07,0,.19.29.19h.66l-1.04.32h-.37s-1.74.04-1.74.04Zm93.73-.25l.79.03c.51.01,1.1.03,1.73.03.18,0,.29,0,.46-.21.05-.18.08-.38.07-.56-.09.22-.23.37-.42.45-.18.08-.5.12-1.02.12s-.85-.06-1.02-.17c-.16-.12-.25-.36-.27-.75l.07-2.8h.1c.67,0,1.15.02,1.46.05.27.03.44.13.62.36,0-.1.02-.2.03-.32l-.08-.37c-.1.04-.23.07-.41.09-.17.02-.72.03-1.7-.07h-.09s.06-3.09.06-3.09h.1c.73,0,1.21.01,1.41.04.44.05.71.18.8.4.01.02.02.05.03.08,0,.02.01.04.02.05.01-.14.02-.26.03-.38l-.08-.4c-.1.02-.22.03-.36.03h-2.34s-.42,0-.42,0l-.24.04c.15.09.29.27.31.59.01.24.02,1.04.02,2.19v1.78c0,1.24-.02,1.94-.05,2.2-.03.25-.09.44-.29.62l.66-.02Zm2.52.26c-.63,0-1.22-.02-1.74-.03l-.79-.03-1.4.05.36-.2c.36-.2.43-.36.47-.67.03-.25.05-.94.05-2.17v-1.78c0-1.13,0-1.94-.02-2.17-.02-.28-.13-.44-.36-.49-.08-.02-.18-.03-.33-.03v-.2s.8-.12.8-.12h.44s2.33,0,2.33,0c.17,0,.31-.02.42-.05l.1-.02.12.62c0,.21-.02.44-.05.69l-.03.22-.15-.16c-.13-.14-.17-.25-.2-.34,0-.02-.02-.05-.03-.07-.07-.15-.29-.24-.64-.28-.18-.02-.63-.03-1.29-.03l-.05,2.7c.91.09,1.42.08,1.57.07.24-.02.38-.06.43-.12l.13-.14.15.72v.02c-.04.33-.04.52-.04.63v.37l-.19-.32c-.24-.41-.39-.5-.64-.53-.29-.03-.73-.05-1.34-.05l-.07,2.59c.02.39.11.53.18.59.07.05.29.13.9.13.48,0,.78-.03.94-.1.21-.09.34-.3.4-.65l.05-.3.14.27c.17.35.12.71.03,1.05l-.02.04c-.23.28-.41.3-.63.3m46.51-.26l.79.03c.52.01,1.1.03,1.73.03.19,0,.29,0,.46-.21.05-.21.08-.39.07-.56-.09.22-.23.37-.42.44-.18.08-.5.12-1.02.12s-.85-.06-1.01-.17c-.16-.12-.25-.37-.27-.75l.08-2.8h.1c.67,0,1.15.02,1.47.05.26.03.44.13.62.37,0-.08.01-.16.02-.25v-.07s-.07-.37-.07-.37c-.1.04-.23.07-.41.09-.15.02-.71.03-1.7-.07h-.09s.07-3.09.07-3.09h.1c.72,0,1.21.01,1.41.04.43.05.7.18.8.4.01.02.02.05.03.08,0,.02.01.04.02.06.01-.14.02-.26.03-.37l-.08-.4c-.1.02-.22.03-.36.03h-2.34s-.42,0-.42,0l-.24.04c.18.11.29.31.31.59.01.2.02.86.02,2.18v1.78c0,1.07-.02,1.89-.05,2.19-.03.26-.09.44-.29.62l.66-.02Zm2.52.26c-.63,0-1.22-.02-1.74-.03l-.79-.03-1.39.05.35-.2c.36-.2.43-.36.47-.67.03-.3.05-1.11.05-2.17v-1.78c0-1.32,0-1.97-.02-2.17-.01-.28-.13-.44-.36-.49-.08-.02-.17-.03-.32-.03v-.2s.8-.12.8-.12h.43s2.33,0,2.33,0c.17,0,.31-.02.42-.05l.1-.02.13.62c0,.19-.02.38-.04.62l-.03.29-.15-.16c-.14-.14-.18-.26-.21-.35,0-.02-.02-.04-.02-.06-.07-.14-.29-.24-.64-.28-.18-.02-.63-.03-1.29-.03l-.06,2.7c.92.09,1.43.08,1.57.07.09,0,.35-.03.42-.12l.13-.14.16.73v.1c-.03.24-.05.42-.05.55v.37l-.19-.32c-.24-.41-.39-.5-.64-.53-.29-.03-.74-.05-1.35-.05l-.07,2.59c.02.38.11.53.19.59.06.04.26.13.9.13.48,0,.79-.03.94-.1.21-.09.34-.3.4-.65l.05-.3.14.27c.16.32.13.65.03,1.05l-.02.04c-.23.28-.4.3-.63.3m-84.32-6.61l.18.2c.84.94,1.74,1.92,2.66,2.9,1.01,1.08,1.91,2,2.66,2.73.35.35.54.52.63.58.01-.07.03-.23.03-.58l.02-5.92c0-.32.02-.56.07-.69.04-.1.1-.17.23-.27h-.51s-.4,0-.4,0l-.14.02c.12.06.21.15.25.28.06.14.09.39.1.73l.12,5.39-2.62-2.83-3.24-3.46c-.15-.15-.23-.23-.27-.27-.01.05-.03.16-.03.38v5.79c0,.44-.02.68-.03.72-.04.37-.15.59-.33.65l.58-.02h.36s.18-.02.18-.02c-.15-.09-.26-.27-.31-.54-.03-.14-.04-.37-.05-.69l-.14-5.11Zm6.17,6.65s-.13,0-.81-.68c-.75-.74-1.65-1.66-2.66-2.74-.86-.91-1.69-1.82-2.48-2.7l.12,4.57c0,.26.02.52.05.65.05.25.14.39.27.43.13.04.29.06.48.06v.2s-.81.12-.81.12h-.37s-1.14.03-1.14.03l.07-.15c.08-.17.23-.21.36-.25h.05c.1-.04.17-.21.21-.5,0-.11.02-.36.02-.7v-5.79c0-.36.05-.61.22-.61.06,0,.11.02.43.36l3.24,3.46,2.27,2.44-.1-4.87c0-.39-.05-.58-.09-.66-.03-.1-.1-.16-.22-.19-.14-.04-.3-.06-.49-.06v-.2s.77-.12.77-.12h.41s1.25-.04,1.25-.04l-.33.2c-.32.2-.41.27-.45.36-.02.06-.06.23-.06.62l-.02,5.92c0,.62-.05.81-.2.81m13.67-7.65c.11.05.19.1.26.16.12.13.23.33.34.6l2.5,6.19c.11.29.18.44.21.49.01.02.02.03.02.03,0,0,.04-.01.11-.08l.28-.59c.17-.36.6-1.36,1.31-3.05l1.14-2.74c.21-.53.41-.86.59-.99.04-.02.08-.04.12-.06h-.41s-.4,0-.4,0l-.3.05c.06.04.11.1.18.18l.02.03v.04c0,.07-.03.19-.1.42-.13.4-.48,1.34-.96,2.57-.55,1.44-.94,2.4-1.22,3.05l-.1.22-2.05-5.4c-.13-.33-.28-.76-.28-.88,0-.14.08-.22.23-.29l-.73.02h-.46s-.29.03-.29.03Zm3.31,7.67s-.02,0-.04,0c-.09-.02-.13-.09-.15-.12-.04-.06-.12-.25-.22-.52l-2.5-6.19c-.12-.3-.23-.46-.3-.53-.07-.07-.19-.13-.37-.18-.08-.03-.19-.04-.36-.04v-.2s.9-.12.9-.12h.48s.94-.02.94-.02c.12,0,.38,0,.38.17v.08l-.38.1c-.24.07-.24.12-.24.15,0,0,0,.12.26.81l1.87,4.94c.27-.63.64-1.56,1.12-2.81.49-1.23.84-2.16.96-2.55.02-.06.07-.23.08-.32-.18-.2-.27-.21-.42-.21l-.02-.2.73-.12h.41s1.07-.03,1.07-.03l-.21.19c-.12.1-.23.16-.33.2-.05.02-.09.04-.13.07-.08.06-.26.25-.52.9l-1.14,2.74c-.71,1.69-1.14,2.69-1.31,3.06l-.32.64c-.11.09-.2.13-.27.13M1.33,78.61c.11.05.19.1.26.16.11.12.21.31.33.6l2.5,6.19c.14.38.19.47.2.49.01.02.02.03.02.03,0,0,.04-.02.11-.08l.27-.59c.18-.36.61-1.36,1.32-3.05l1.14-2.74c.23-.55.42-.87.6-.99.04-.02.07-.04.11-.06h-.42s-.39,0-.39,0l-.31.05c.06.04.11.1.18.18l.02.03v.04c0,.05-.01.15-.1.42-.12.4-.46,1.32-.96,2.57-.56,1.44-.95,2.41-1.23,3.05l-.1.22-2.04-5.4c-.25-.66-.28-.81-.28-.88,0-.14.09-.22.23-.28l-.73.02h-.46s-.3.03-.3.03Zm3.3,7.67s-.02,0-.03,0c-.09-.02-.13-.09-.15-.13-.05-.07-.15-.32-.22-.51l-2.5-6.19c-.11-.26-.2-.44-.29-.54-.07-.07-.19-.13-.38-.18-.09-.04-.24-.04-.36-.04v-.2s.91-.12.91-.12h.47s.95-.02.95-.02c.1,0,.38,0,.38.17v.08l-.38.1c-.24.08-.24.12-.24.15,0,.03.04.18.27.81l1.87,4.94c.27-.63.63-1.54,1.12-2.81.49-1.23.83-2.16.95-2.55.06-.18.08-.28.09-.32-.18-.2-.28-.21-.42-.21l-.02-.2.73-.12h.4s1.07-.03,1.07-.03l-.21.19c-.11.1-.22.16-.32.2-.05.02-.09.04-.13.07-.14.1-.32.4-.52.9l-1.14,2.74c-.71,1.7-1.14,2.7-1.32,3.06l-.31.64c-.11.09-.19.13-.26.13m54.79-7.67c.15.09.29.27.31.59.02.22.02.97.02,2.18v1.47c0,1.18.29,2.05.85,2.58.49.46,1.18.69,2.04.69.8,0,1.48-.24,2.03-.72.6-.53.91-1.52.91-2.95v-1.08c0-1.19,0-1.95.02-2.19.01-.27.1-.46.29-.63h-.5s-.4,0-.4,0l-.19.03c.19.11.29.31.32.59.01.21.02.89.02,2.19v1.26c0,1.19-.21,2.05-.63,2.55-.41.5-.97.75-1.67.75-.65,0-1.19-.2-1.6-.58-.53-.49-.8-1.36-.8-2.56v-1.41c0-1.14,0-1.93.03-2.19.02-.28.1-.47.28-.63l-.65.02h-.45s-.23.03-.23.03Zm3.22,7.73c-.91,0-1.64-.25-2.18-.75-.61-.57-.92-1.49-.92-2.73v-1.47c0-1.18,0-1.96-.02-2.17-.01-.29-.13-.44-.36-.49-.08-.02-.18-.03-.33-.03v-.2s.79-.12.79-.12h.46s1.47-.04,1.47-.04l-.41.21c-.4.2-.48.37-.49.67-.02.25-.02,1.04-.02,2.17v1.41c0,1.15.25,1.96.74,2.42.37.35.87.53,1.46.53.65,0,1.14-.22,1.52-.68.39-.47.58-1.28.58-2.42v-1.26c0-1.28,0-1.97-.02-2.17-.02-.28-.14-.44-.37-.48-.08-.02-.17-.03-.32-.03l-.02-.2.76-.12h.42s1.28-.04,1.28-.04l-.38.21c-.41.22-.48.39-.5.67-.01.24-.02.99-.02,2.18v1.08c0,1.48-.33,2.52-.97,3.1-.59.51-1.31.77-2.16.77m62.33-1.57c-.01.18-.02.44-.02.82,0,.09.01.25.09.29.36.18.81.27,1.32.27.59,0,1.09-.14,1.48-.41.55-.39.82-.92.82-1.59,0-.41-.1-.77-.29-1.08-.21-.36-.6-.77-1.16-1.2l-.29-.22c-.49-.38-.83-.69-1.01-.93-.19-.25-.28-.54-.28-.85,0-.38.13-.69.39-.93.26-.23.58-.35.97-.35.69,0,1.14.2,1.36.59.04.07.07.14.1.25,0-.2,0-.39.02-.56l-.06-.28c-.09,0-.19-.02-.3-.05-.28-.07-.59-.1-.92-.1-.63,0-1.11.16-1.47.48-.36.31-.54.72-.54,1.24,0,.36.08.67.25.97.2.35.55.74,1.04,1.13l.46.38c.45.36.77.68.94.96.18.26.27.57.27.94s-.13.72-.38.98c-.29.31-.68.47-1.17.47-.91,0-1.45-.37-1.6-1.11v-.03s-.01-.04-.02-.06m1.4,1.57c-.55,0-1.02-.1-1.41-.29-.14-.06-.21-.22-.21-.47,0-.58.02-.97.06-1.17l.04-.21.13.17c.15.19.18.33.2.43.14.66.6.97,1.41.97.44,0,.77-.13,1.03-.4.22-.22.33-.51.33-.84s-.08-.6-.23-.83c-.16-.26-.47-.56-.9-.91l-.46-.38c-.51-.41-.88-.82-1.09-1.19-.18-.33-.27-.68-.27-1.07,0-.57.2-1.04.61-1.39.4-.35.94-.53,1.61-.53.35,0,.67.04.97.11.13.03.24.04.33.04h.08l.1.46h0c-.01.24-.02.5-.02.78,0,.09,0,.33-.17.33h-.07l-.04-.14c-.09-.3-.13-.45-.19-.55-.18-.32-.57-.49-1.18-.49-.34,0-.61.1-.84.3-.22.2-.32.45-.32.78,0,.26.08.51.24.73.17.22.49.52.97.89l.29.23c.59.45,1,.88,1.21,1.26.21.34.31.74.31,1.19,0,.74-.31,1.33-.91,1.76-.42.3-.96.45-1.6.45m36.39-1.57c-.01.2-.02.46-.02.81,0,.16.03.26.09.29.37.18.81.27,1.33.27.59,0,1.09-.14,1.48-.41.56-.39.83-.91.83-1.59,0-.41-.09-.77-.28-1.08-.21-.36-.61-.77-1.17-1.2l-.29-.22c-.5-.39-.83-.69-1.01-.93-.18-.25-.27-.54-.27-.85,0-.39.13-.7.39-.93.25-.23.58-.35.96-.35.69,0,1.15.2,1.36.59.04.07.07.14.1.25,0-.21,0-.39.02-.56l-.06-.28c-.07,0-.17-.02-.3-.05-.28-.07-.6-.1-.93-.1-.62,0-1.11.16-1.47.48-.36.31-.53.72-.53,1.24,0,.37.08.68.24.97.19.35.54.73,1.04,1.14l.46.38c.45.36.77.69.94.96.18.26.27.57.27.94s-.13.71-.38.98c-.29.31-.68.47-1.17.47-.92,0-1.46-.37-1.61-1.11v-.03s0-.04-.01-.06m1.4,1.57c-.55,0-1.01-.09-1.41-.29-.14-.06-.21-.22-.21-.47,0-.63.02-.99.06-1.18l.05-.2.13.16c.15.19.17.33.19.43.14.66.6.97,1.42.97.44,0,.77-.13,1.03-.4.22-.23.33-.51.33-.84s-.08-.6-.24-.83c-.16-.26-.46-.56-.9-.91l-.46-.38c-.52-.42-.88-.82-1.09-1.19-.18-.32-.27-.67-.27-1.07,0-.58.2-1.04.6-1.39.4-.35.94-.53,1.6-.53.35,0,.67.04.97.11.17.04.28.04.33.04h.08l.1.47h0c-.01.23-.02.48-.02.78,0,.08,0,.33-.17.33h-.07l-.07-.23c-.07-.23-.11-.36-.16-.45-.17-.33-.57-.49-1.19-.49-.33,0-.61.1-.83.3-.22.19-.32.45-.32.78,0,.27.08.51.23.73.16.22.49.52.97.89l.29.22c.58.45.99.87,1.22,1.26.2.34.31.74.31,1.19,0,.75-.31,1.34-.91,1.76-.42.3-.96.45-1.59.45"/></g><rect class="cls-5" x=".36" y="91.67" width="76.54" height=".66"/><rect class="cls-5" x="97.73" y="91.67" width="76.54" height=".66"/><g class="cls-13"><path class="cls-5" d="m79.8,94.89h2.23v-.15c-.64,0-.75-.13-.75-.85v-4.97c0-.06-.04-.09-.09-.09-.06,0-.1.04-.14.07-.43.34-.94.43-1.27.46v.15c.71,0,.79.11.79.54v3.84c0,.72-.11.85-.77.85v.15Zm6.48-4.81c0-.73-.56-1.25-1.36-1.25-1.05,0-1.61.76-1.61,1.55,0,.86.63,1.26,1.01,1.5-.33.23-1.15.82-1.15,1.72,0,.72.63,1.37,1.57,1.37,1.1,0,1.73-.81,1.73-1.74,0-.99-.68-1.45-1.03-1.7.36-.31.85-.8.85-1.45m-.39,3.5c0,.88-.73,1.2-1.14,1.2-.56,0-1.1-.44-1.1-1.29s.63-1.24.98-1.45c1.02.33,1.27,1.04,1.27,1.55m-.09-3.49c0,.6-.37.95-.7,1.25-.27-.09-1.22-.42-1.22-1.38,0-.49.36-.93,1.03-.93.56,0,.9.47.9,1.07m3.47,2.07h-1.75l1.73-2.58h.02v2.58Zm0,.49v2.25h.63v-2.25h.74v-.49h-.74v-3.32h-.41l-2.42,3.57v.25h2.2Zm1.96,2.32c2.66-.19,3.3-1.43,3.3-2.31,0-1.09-.95-2.05-2.44-2.05-.13,0-.24.02-.37.04l.22-1.11,2.42.04c.19-.69.27-.82.27-.89s-.04-.11-.09-.11c-.18,0-.2.34-.64.34h-2.13l-.42,2.32c1.51,0,2.53.45,2.53,1.55,0,1.57-1.86,1.99-2.63,2.04v.15Z"/><path class="cls-5" d="m91.17,95.03v-.27h.05c.42-.03,1.06-.16,1.58-.45.66-.36,1-.88,1-1.54,0-1.23-1.34-1.49-2.47-1.49h-.07l.44-2.44h2.18c.24,0,.34-.11.42-.2.06-.07.12-.14.22-.14.09,0,.15.07.15.17,0,.04-.01.08-.05.17-.04.12-.11.33-.22.73v.04s-.06,0-.06,0l-2.37-.04-.19.98c.1-.01.19-.03.3-.03,1.42,0,2.5.91,2.5,2.11,0,.5-.24,2.15-3.35,2.37h-.06Zm.12-.16v.03c1.99-.16,3.18-1,3.18-2.25,0-1.13-1.02-1.99-2.38-1.99-.11,0-.2.01-.3.03l-.14.02.24-1.24h.05s2.37.04,2.37.04c.1-.37.17-.57.21-.69.02-.07.04-.12.04-.14,0,0,0-.05-.04-.05-.04,0-.07.03-.13.1-.09.1-.22.24-.51.24h-2.08l-.4,2.21c1.64.02,2.51.57,2.51,1.61,0,.69-.37,1.26-1.06,1.64-.52.28-1.14.42-1.57.45Zm-6.55.15c-1.02,0-1.63-.73-1.63-1.43,0-.62.37-1.2,1.1-1.72-.37-.23-.96-.66-.96-1.5,0-.8.57-1.61,1.67-1.61.82,0,1.42.55,1.42,1.3,0,.64-.45,1.13-.81,1.45.38.27.99.74.99,1.7,0,.86-.56,1.79-1.78,1.79Zm.18-6.13c-1.07,0-1.55.77-1.55,1.49,0,.84.64,1.24.98,1.45l.08.05-.07.05c-.75.51-1.13,1.07-1.13,1.67,0,.64.57,1.31,1.51,1.31,1.15,0,1.67-.87,1.67-1.68,0-.95-.65-1.4-1-1.64l-.06-.04.05-.06c.36-.31.83-.78.83-1.41,0-.7-.54-1.19-1.3-1.19Zm5.04,6.06h-.75v-2.25h-2.2v-.34s2.45-3.59,2.45-3.59h.5v3.32h.74v.61h-.74v2.25Zm-.63-.12h.51v-2.25h.74v-.37h-.74v-3.32h-.32l-2.39,3.53v.17h2.2v2.25Zm-7.24.12h-2.35v-.27h.06c.62,0,.71-.1.71-.79v-3.84c0-.37-.03-.48-.73-.48h-.06v-.26h.05c.34-.04.83-.13,1.24-.46.05-.04.11-.08.18-.08.08,0,.14.06.14.14v4.97c0,.69.09.79.7.79h.06v.27Zm-2.23-.12h2.11v-.03c-.62,0-.75-.18-.75-.91v-4.97s0-.03-.03-.03c-.03,0-.07.03-.1.05-.42.33-.9.43-1.25.47v.04c.65,0,.79.12.79.6v3.84c0,.73-.13.9-.77.91v.03Zm4.89,0c-.58,0-1.16-.46-1.16-1.35s.68-1.3,1.01-1.5h.02s.03,0,.03,0c1.18.38,1.31,1.25,1.31,1.6,0,.95-.81,1.26-1.2,1.26Zm-.12-2.74c-.32.2-.93.59-.93,1.39,0,.85.54,1.23,1.05,1.23.35,0,1.08-.28,1.08-1.14,0-.33-.12-1.12-1.2-1.48Zm4.7.12h-1.92l1.81-2.69h.11v2.69Zm-1.7-.12h1.58v-2.35l-1.58,2.35Zm-2.52-.7h-.03c-.84-.3-1.26-.79-1.26-1.44,0-.48.34-.99,1.09-.99.56,0,.95.46.95,1.13s-.42,1.02-.72,1.29l-.03.02Zm-.2-2.32c-.67,0-.97.45-.97.88,0,.59.39,1.04,1.15,1.31.29-.25.66-.6.66-1.18s-.34-1.01-.84-1.01Z"/></g><polygon class="cls-3" points="87.73 0 46.11 6.32 46.11 6.59 50.88 9.32 52.25 9.32 52.25 7.83 122.7 7.83 122.7 9.38 124.07 9.38 129.35 6.59 129.35 6.32 87.73 0"/><polygon class="cls-3" points="92.57 23.79 91.53 23.79 91.53 22.55 83.61 22.55 83.61 23.79 82.56 23.79 82.56 21.5 92.57 21.5 92.57 23.79"/><path class="cls-3" d="m101.72,20.64h-5.13v-10.39h5.13v10.39Zm-4.02-1.11h2.91v-8.17h-2.91v8.17Z"/><path class="cls-3" d="m78.75,20.64h-5.13v-10.39h5.13v10.39Zm-4.02-1.11h2.91v-8.17h-2.91v8.17Z"/><path class="cls-3" d="m61.23,20.64h-5.13v-10.39h5.13v10.39Zm-4.02-1.11h2.91v-8.17h-2.91v8.17Z"/><path class="cls-3" d="m118.93,20.64h-5.13v-10.39h5.13v10.39Zm-4.02-1.11h2.91v-8.17h-2.91v8.17Z"/><rect class="cls-3" x="98.67" y="10.94" width=".98" height="9.26"/><rect class="cls-3" x="75.7" y="10.75" width=".98" height="9.44"/><rect class="cls-3" x="58.18" y="10.94" width=".98" height="9.26"/><rect class="cls-3" x="115.88" y="10.81" width=".98" height="9.38"/><g class="cls-12"><rect class="cls-3" x="0" y="45.89" width="70.19" height="1.33"/><rect class="cls-3" x="104.95" y="45.89" width="70" height="1.33"/></g><rect class="cls-3" x="47.78" y="23.7" width="80.29" height="1.33"/><g class="cls-10"><rect class="cls-3" y="24.45" width="1.33" height="22.78"/><rect class="cls-3" x="173.74" y="25.61" width="1.33" height="21.62"/></g><polygon class="cls-3" points="48.46 45.97 47.13 45.97 47.13 16 49.46 16 50.92 14.53 50.92 7.73 52.25 7.73 52.25 15.08 50.01 17.33 48.46 17.33 48.46 45.97"/><polygon class="cls-3" points="127.82 45.97 126.49 45.97 126.49 17.33 124.93 17.33 122.7 15.08 122.7 7.73 124.03 7.73 124.03 14.53 125.49 16 127.82 16 127.82 45.97"/><rect class="cls-3" x="47.78" y="41.62" width="79.35" height="1.32"/><rect class="cls-3" x="77.22" y="44.04" width="20.7" height="1.05"/><rect class="cls-3" x="73.53" y="46.18" width="28.09" height="1.05"/><rect class="cls-3" x="127.14" y="23.47" width="47.93" height="3.19"/><rect class="cls-3" x="0" y="23.47" width="47.31" height="3.19"/><rect class="cls-3" x="68.87" y="7.37" width="1.33" height="39.86"/><rect class="cls-3" x="104.93" y="7.37" width="1.33" height="39.86"/><g class="cls-11"><path class="cls-3" d="m168.09,42.85h-6.55v-8.79l.04-.1c.04-.1.99-2.45,3.25-2.78l.12-.02.12.03c.08.02,2,.61,2.98,2.73l.05.11v8.8Zm-5.44-1.11h4.33v-7.45c-.66-1.33-1.77-1.85-2.12-1.99-1.33.27-2.04,1.62-2.21,1.98v7.45Z"/></g><rect class="cls-3" x="161.91" y="34.16" width="5.83" height=".89"/><rect class="cls-3" x="161.91" y="39.41" width="5.83" height=".89"/><rect class="cls-3" x="164.33" y="32.07" width=".98" height="9.88"/><g class="cls-14"><path class="cls-3" d="m158.73,42.85h-6.55v-8.79l.04-.1c.04-.1.99-2.45,3.25-2.78l.12-.02.12.03c.08.02,1.99.61,2.98,2.73l.05.11v8.8Zm-5.44-1.11h4.33v-7.45c-.66-1.33-1.77-1.85-2.12-1.99-1.33.27-2.04,1.62-2.21,1.98v7.45Z"/></g><rect class="cls-3" x="152.55" y="34.16" width="5.83" height=".89"/><rect class="cls-3" x="152.55" y="39.41" width="5.83" height=".89"/><rect class="cls-3" x="154.97" y="32.07" width=".98" height="9.88"/><g class="cls-18"><path class="cls-3" d="m149.37,42.85h-6.55v-8.79l.04-.1c.04-.1.99-2.45,3.25-2.78l.12-.02.12.03c.08.02,1.99.61,2.98,2.73l.05.11v8.8Zm-5.44-1.11h4.33v-7.45c-.66-1.33-1.77-1.85-2.12-1.99-1.34.27-2.05,1.62-2.21,1.98v7.46Z"/></g><rect class="cls-3" x="143.19" y="34.16" width="5.83" height=".89"/><rect class="cls-3" x="143.19" y="39.41" width="5.83" height=".89"/><rect class="cls-3" x="145.61" y="32.07" width=".98" height="9.88"/><g class="cls-22"><path class="cls-3" d="m140.01,42.85h-6.55v-8.79l.04-.1c.04-.1.99-2.45,3.25-2.78l.12-.02.12.03c.08.02,2,.61,2.98,2.73l.05.11v8.8Zm-5.44-1.11h4.33v-7.45c-.66-1.33-1.77-1.85-2.12-1.99-1.33.27-2.04,1.62-2.21,1.98v7.45Z"/></g><rect class="cls-3" x="133.83" y="34.16" width="5.83" height=".89"/><rect class="cls-3" x="133.83" y="39.41" width="5.83" height=".89"/><rect class="cls-3" x="136.25" y="32.07" width=".98" height="9.88"/><rect class="cls-3" x="58.22" y="27.8" width=".89" height="13.98"/><rect class="cls-3" x="55.2" y="30.71" width="6.96" height=".89"/><rect class="cls-3" x="55.2" y="38.38" width="6.96" height=".89"/><g class="cls-17"><path class="cls-3" d="m62.85,41.91h-1.05v-10.69c-.13-.39-.93-2.61-3.16-3.28-.48.16-2.22.9-3.12,3.3v10.68h-1.05v-10.86l.03-.09c1.2-3.36,3.89-4.05,4-4.08l.13-.03.13.03c3.13.84,4.02,3.98,4.06,4.12l.02.14v10.77Z"/></g><rect class="cls-3" x="77.04" y="27.8" width=".89" height="13.98"/><rect class="cls-3" x="74.02" y="30.71" width="6.96" height=".89"/><rect class="cls-3" x="74.02" y="38.38" width="6.96" height=".89"/><g class="cls-16"><path class="cls-3" d="m81.67,41.91h-1.05v-10.69c-.13-.39-.93-2.61-3.16-3.28-.48.16-2.22.9-3.12,3.3v10.68h-1.05v-10.86l.03-.09c1.2-3.36,3.89-4.05,4-4.08l.13-.03.13.03c3.13.84,4.02,3.98,4.06,4.12l.02.14v10.77Z"/></g><rect class="cls-3" x="87.02" y="27.8" width=".89" height="13.98"/><rect class="cls-3" x="84" y="30.71" width="6.96" height=".89"/><rect class="cls-3" x="84" y="38.38" width="6.96" height=".89"/><g class="cls-15"><path class="cls-3" d="m91.65,41.91h-1.05v-10.69c-.13-.39-.93-2.61-3.16-3.28-.48.16-2.22.9-3.12,3.3v10.68h-1.05v-10.86l.03-.09c1.2-3.36,3.89-4.05,4-4.08l.13-.03.13.03c3.13.84,4.02,3.99,4.06,4.12l.02.14v10.77Z"/></g><rect class="cls-3" x="97.22" y="27.8" width=".89" height="13.98"/><rect class="cls-3" x="94.2" y="30.71" width="6.96" height=".89"/><rect class="cls-3" x="94.2" y="38.38" width="6.96" height=".89"/><g class="cls-19"><path class="cls-3" d="m101.85,41.91h-1.05v-10.69c-.13-.39-.94-2.61-3.16-3.28-.48.16-2.23.9-3.12,3.3v10.68h-1.05v-10.86l.03-.09c1.2-3.36,3.89-4.05,4-4.08l.13-.03.13.03c3.13.84,4.02,3.98,4.06,4.12l.02.14v10.77Z"/></g><rect class="cls-3" x="115.93" y="27.8" width=".89" height="13.98"/><rect class="cls-3" x="112.91" y="30.71" width="6.96" height=".89"/><rect class="cls-3" x="112.91" y="38.38" width="6.96" height=".89"/><g class="cls-21"><path class="cls-3" d="m120.56,41.91h-1.05v-10.69c-.13-.39-.93-2.61-3.16-3.28-.48.16-2.22.9-3.12,3.3v10.68h-1.05v-10.86l.03-.09c1.2-3.36,3.89-4.05,4-4.08l.13-.03.13.03c3.13.84,4.02,3.99,4.06,4.12l.02.14v10.77Z"/></g><g class="cls-20"><path class="cls-4" d="m173.11,98.69c.55,0,.91-.42.91-.88,0-.51-.4-.88-.91-.88-.57,0-.88.51-.88.91,0,.42.29.86.88.86m-.86,11.6c0,2.02,0,3.68-.11,4.57-.08.61-.21,1.09-.63,1.18-.19.04-.42.06-.55.06-.19,0-.23.06-.23.13,0,.13.11.17.34.17.63,0,1.96-.06,2.06-.06s1.45.06,2.61.06c.23,0,.32-.06.32-.17,0-.06-.06-.13-.25-.13-.13,0-.57-.04-.86-.08-.63-.08-.76-.55-.82-1.16-.11-.88-.11-2.55-.11-4.57v-3.71c0-3.28,0-3.87.04-4.55.04-.74.21-1.09.78-1.2.25-.04.38-.06.53-.06.08,0,.17-.04.17-.13,0-.13-.11-.17-.34-.17-.63,0-1.96.06-2.06.06s-1.43-.06-2.13-.06c-.23,0-.34.04-.34.17,0,.08.08.13.17.13.15,0,.42.02.65.08.46.11.67.46.72,1.18.04.67.04,1.26.04,4.55v3.71Zm-16.49,6.4c1.14,0,2.27-.25,3.18-.88,1.45-1.03,1.79-2.63,1.79-3.5,0-1.68-.59-2.99-3.07-4.95l-.59-.46c-2.02-1.58-2.57-2.34-2.57-3.54,0-1.54,1.14-2.44,2.59-2.44,1.94,0,2.51.88,2.63,1.12.13.23.25.8.27,1.05.02.17.04.27.17.27.11,0,.15-.15.15-.48,0-1.43.08-2.13.08-2.23s-.04-.15-.21-.15-.34-.02-.74-.11c-.53-.13-1.14-.21-1.96-.21-2.67,0-4.36,1.54-4.36,3.79,0,1.43.51,2.74,2.74,4.57l.95.78c1.81,1.49,2.42,2.34,2.42,3.79,0,1.35-.99,2.8-3.01,2.8-1.41,0-2.8-.59-3.12-2.15-.06-.29-.06-.59-.06-.78,0-.17-.02-.23-.15-.23-.11,0-.15.11-.17.34-.02.34-.11,1.18-.11,2.23,0,.57.02.65.32.8.86.42,1.83.57,2.82.57m-20.63-6.4c0,1.87-.02,2.95-.04,3.77-.04,1.58-.32,1.87-.76,1.98-.15.04-.27.04-.48.06-.13.02-.23.06-.23.13,0,.13.11.17.34.17.55.02,1.05-.06,1.56-.06.82,0,1.79.04,2.63.06.82.02,1.52.06,3.07.06.82,0,.99,0,1.14-.55.11-.44.27-1.87.27-2.04,0-.15,0-.32-.13-.32-.11,0-.15.08-.19.32-.17.91-.4,1.35-1.07,1.56-.57.17-1.26.19-1.89.19-.82,0-1.39-.04-1.75-.19-.53-.21-.65-.67-.69-1.54-.02-.44,0-2.88,0-3.6v-1.85c0-.08.04-.15.15-.15.36,0,2.44.04,3.01.11.76.08,1.01.38,1.09.69.06.19.08.4.08.59,0,.17.02.34.15.34.08,0,.13-.11.15-.32.02-.29.02-.78.08-1.43.06-.69.17-1.05.17-1.18s-.04-.17-.11-.17c-.08,0-.15.08-.25.21-.21.25-.48.32-1.05.36-.48.04-3.07.04-3.35.04-.11,0-.13-.06-.13-.21v-5.81c0-.15.04-.21.13-.21.23,0,2.53.02,2.88.06.93.08,1.37.29,1.52.78.06.17.11.42.11.69,0,.17.04.27.17.27.08,0,.15-.15.17-.36.04-.55.06-.95.08-1.26.04-.59.17-.84.17-.99,0-.11-.02-.19-.08-.19s-.11.02-.23.08c-.13.06-.51.11-.97.13-.48.02-4.67.02-4.82.02-1.33-.06-1.89-.06-2.38-.06-.23,0-.34.04-.34.17,0,.08.13.11.27.13.19.02.46.02.61.06.69.15.86.48.91,1.2.04.67.04,1.26.04,4.55v3.71Zm-26.95,3.01c0,1.92-.11,2.53-.63,2.67-.32.11-.69.13-.86.13-.11,0-.17.04-.17.13,0,.15.13.17.34.17.95,0,1.83-.06,2.02-.06s1.03.06,2.23.06c.25,0,.38-.04.38-.17,0-.08-.06-.13-.17-.13-.19,0-.65-.02-1.05-.13-.57-.17-.78-.72-.82-2.44l-.27-10.09c.67.76,3.05,3.41,5.5,6.04,2.23,2.4,5.26,5.5,5.5,5.71,1.12,1.12,1.37,1.35,1.54,1.35.15,0,.19-.11.19-1.49l.04-12.3c0-1.45.15-1.77.74-1.89.25-.04.38-.06.55-.08.15-.02.23-.06.23-.15,0-.13-.15-.15-.38-.15-.86,0-1.56.06-1.79.06s-1.24-.06-2.19-.06c-.25,0-.42.02-.42.15,0,.08.06.15.29.15.19,0,.53.02.91.11.65.17.8.63.82,2l.23,10.7c-.67-.69-2.97-3.26-5.05-5.5-3.24-3.47-6.38-6.86-6.7-7.22-.21-.21-.57-.67-.74-.67s-.23.23-.23,1.05c.02,4.08-.02,1.35-.02,8.95v3.12Zm-18.95-3.87c-.06,0-.11-.04-.06-.15l1.85-5.68c.11-.32.21-.32.32,0l2,5.68c.02.08.02.15-.08.15h-4.02Zm4.3.76c.11,0,.15.04.19.13l1.96,5.18c.13.34,0,.53-.13.57-.08.02-.15.06-.15.15,0,.13.23.13.63.15,1.45.04,2.99.04,3.31.04.23,0,.42-.04.42-.17,0-.11-.11-.13-.23-.13-.17,0-.51-.02-.82-.13-.44-.13-1.05-.46-1.81-2.34-1.28-3.2-4.59-11.9-4.91-12.7-.25-.65-.34-.76-.46-.76s-.21.13-.46.82l-4.78,13.07c-.38,1.05-.8,1.85-1.77,1.98-.17.02-.36.04-.51.04-.19,0-.29.04-.29.13,0,.13.13.17.4.17.99,0,2.15-.06,2.38-.06s1.07.06,1.58.06c.19,0,.38-.04.38-.17,0-.08-.06-.13-.27-.13h-.19c-.36,0-.76-.19-.76-.61,0-.38.11-.88.29-1.41l1.26-3.73c.04-.11.11-.17.21-.17h4.53Zm-20.93-8.8c.88.02,1.77.02,2.65.04,2.02.04,2.53.53,2.59,1.16,0,.08.02.15.02.23.02.29.06.36.17.36.08,0,.15-.08.15-.27,0-.23.06-1.68.06-2.32,0-.13,0-.25-.11-.25-.08,0-.27.06-.59.11-.34.06-.82.11-1.49.11h-7.9c-.25,0-1.05-.04-1.66-.11-.57-.04-.78-.25-.93-.25-.08,0-.17.27-.21.4-.04.17-.46,1.98-.46,2.19,0,.13.04.19.11.19.08,0,.15-.04.21-.21.06-.15.13-.29.36-.65.34-.51.84-.65,2.15-.67,1.03-.02,2.08-.02,3.12-.04v8.91c0,2.02,0,3.68-.11,4.57-.08.61-.19,1.07-.61,1.16-.19.04-.44.08-.63.08-.13,0-.17.06-.17.13,0,.13.11.17.34.17.63,0,1.96-.06,2.06-.06s1.43.06,2.59.06c.23,0,.34-.06.34-.17,0-.06-.04-.13-.17-.13-.19,0-.65-.04-.95-.08-.63-.08-.76-.55-.82-1.16-.11-.88-.11-2.55-.11-4.57v-8.91Zm-21.12,15.31c1.14,0,2.27-.25,3.18-.88,1.45-1.03,1.79-2.63,1.79-3.5,0-1.68-.59-2.99-3.07-4.95l-.59-.46c-2.02-1.58-2.57-2.34-2.57-3.54,0-1.54,1.14-2.44,2.59-2.44,1.94,0,2.51.88,2.63,1.12.13.23.25.8.27,1.05.02.17.04.27.17.27.11,0,.15-.15.15-.48,0-1.43.08-2.13.08-2.23s-.04-.15-.21-.15-.34-.02-.74-.11c-.53-.13-1.14-.21-1.96-.21-2.67,0-4.36,1.54-4.36,3.79,0,1.43.51,2.74,2.74,4.57l.95.78c1.81,1.49,2.42,2.34,2.42,3.79,0,1.35-.99,2.8-3.01,2.8-1.41,0-2.8-.59-3.12-2.15-.06-.29-.06-.59-.06-.78,0-.17-.02-.23-.15-.23-.11,0-.15.11-.17.34-.02.34-.11,1.18-.11,2.23,0,.57.02.65.32.8.86.42,1.83.57,2.82.57m-21.81-7.26c-.06,0-.11-.04-.06-.15l1.85-5.68c.11-.32.21-.32.32,0l2,5.68c.02.08.02.15-.08.15h-4.02Zm4.3.76c.11,0,.15.04.19.13l1.96,5.18c.13.34,0,.53-.13.57-.08.02-.15.06-.15.15,0,.13.23.13.63.15,1.45.04,2.99.04,3.31.04.23,0,.42-.04.42-.17,0-.11-.11-.13-.23-.13-.17,0-.51-.02-.82-.13-.44-.13-1.05-.46-1.81-2.34-1.28-3.2-4.59-11.9-4.91-12.7-.25-.65-.34-.76-.46-.76s-.21.13-.46.82l-4.78,13.07c-.38,1.05-.8,1.85-1.77,1.98-.17.02-.36.04-.51.04-.19,0-.29.04-.29.13,0,.13.13.17.4.17.99,0,2.15-.06,2.38-.06s1.07.06,1.58.06c.19,0,.38-.04.38-.17,0-.08-.06-.13-.27-.13h-.19c-.36,0-.76-.19-.76-.61,0-.38.11-.88.29-1.41l1.26-3.73c.04-.11.11-.17.21-.17h4.53Zm-30.09-3.03c-.06,0-.13-.02-.13-.13v-.44c0-3.28,0-3.87.04-4.55.04-.74.21-1.09.78-1.2.25-.04.38-.06.53-.06.08,0,.17-.04.17-.13,0-.13-.11-.17-.34-.17-.63,0-1.96.06-2.06.06s-1.43-.06-2.38-.06c-.23,0-.34.04-.34.17,0,.08.08.13.17.13.19,0,.55.02.72.06.69.15.86.48.91,1.2.04.67.04,1.26.04,4.55v3.71c0,2.02,0,3.68-.11,4.57-.08.61-.19,1.07-.61,1.16-.19.04-.44.08-.63.08-.13,0-.17.06-.17.13,0,.13.11.17.34.17.63,0,1.96-.06,2.06-.06s1.43.06,2.59.06c.23,0,.34-.06.34-.17,0-.06-.04-.13-.17-.13-.19,0-.65-.04-.95-.08-.63-.08-.76-.55-.82-1.16-.11-.88-.11-2.55-.11-4.57v-2.21c0-.11.06-.13.13-.13h8.93c.06,0,.13.04.13.13v2.21c0,2.02,0,3.68-.11,4.57-.08.61-.19,1.07-.61,1.16-.19.04-.44.08-.63.08-.13,0-.17.06-.17.13,0,.13.11.17.34.17.63,0,1.96-.06,2.06-.06s1.43.06,2.59.06c.23,0,.34-.06.34-.17,0-.06-.04-.13-.17-.13-.19,0-.65-.04-.95-.08-.63-.08-.76-.55-.82-1.16-.11-.88-.11-2.55-.11-4.57v-3.71c0-3.28,0-3.87.04-4.55.04-.74.21-1.09.78-1.2.25-.04.38-.06.53-.06.08,0,.17-.04.17-.13,0-.13-.11-.17-.34-.17-.63,0-1.96.06-2.06.06s-1.43-.06-2.38-.06c-.23,0-.34.04-.34.17,0,.08.08.13.17.13.19,0,.55.02.72.06.69.15.86.48.91,1.2.04.67.04,1.26.04,4.55v.44c0,.11-.06.13-.13.13H3.87Z"/></g></svg>