<?xml version="1.0" encoding="UTF-8"?>
<svg id="katman_2" data-name="katman 2" xmlns="http://www.w3.org/2000/svg" viewBox="0 0 849.24 136.69">
  <defs>
    <style>
      .cls-1 {
        fill: #bd0042;
      }
    </style>
  </defs>
  <g id="Layer_1" data-name="Layer 1">
    <g>
      <path class="cls-1" d="M109.6,65.69h-38.46v-13.86l1.57-.48c5.29-1.63,8.83-6.43,8.83-11.96,0-6.9-5.62-12.51-12.51-12.51s-12.52,5.61-12.52,12.51c0,5.53,3.56,10.34,8.84,11.96l1.57.48v13.86h-28.57c-1.22,0-2.22-.99-2.22-2.21s.99-2.22,2.22-2.22h24.14v-6.23c-6.29-2.61-10.4-8.71-10.4-15.64,0-9.34,7.6-16.94,16.95-16.94s16.94,7.6,16.94,16.94c0,6.93-4.11,13.02-10.4,15.64v6.23h34.03c1.22,0,2.21.99,2.21,2.22s-.99,2.21-2.21,2.21"/>
      <path class="cls-1" d="M73.36,136.69c-1.22,0-2.21-.99-2.21-2.21v-64.56h38.46c1.22,0,2.22.99,2.22,2.21s-.99,2.22-2.22,2.22h-34.03v60.13c0,1.22-.99,2.21-2.21,2.21"/>
      <path class="cls-1" d="M109.6,107.76h-13.14v-9.21l1.33-.58c2.86-1.25,4.71-4.06,4.71-7.16,0-4.31-3.51-7.82-7.82-7.82s-7.82,3.51-7.82,7.82c0,3.1,1.85,5.91,4.71,7.16l1.33.58v9.21h-10.9c-1.22,0-2.21-.99-2.21-2.21s.99-2.22,2.21-2.22h6.47v-1.97c-3.71-2.18-6.04-6.18-6.04-10.54,0-6.76,5.49-12.25,12.25-12.25s12.25,5.49,12.25,12.25c0,4.36-2.33,8.36-6.05,10.54v1.97h8.71c1.22,0,2.21.99,2.21,2.22s-.99,2.21-2.21,2.21"/>
      <path class="cls-1" d="M90.7,136.57c-1.16,0-2.09-.94-2.09-2.09v-18.86h-6.59c-1.16,0-2.09-.94-2.09-2.09s.94-2.09,2.09-2.09h10.77v23.05c0,1.16-.94,2.09-2.09,2.09"/>
      <path class="cls-1" d="M66.92,69.92h-28.57c-1.22,0-2.22.99-2.22,2.21s.99,2.22,2.22,2.22h23.02l-24.84,59.09c-.48,1.12.06,2.43,1.19,2.9.28.12.57.17.86.17.87,0,1.69-.51,2.04-1.36l26.31-62.57v-2.67Z"/>
      <path class="cls-1" d="M102.13,115.61h7.47c1.16,0,2.09-.94,2.09-2.09s-.94-2.09-2.09-2.09h-13.14v2.38l11.29,21.64c.37.72,1.1,1.13,1.86,1.13.33,0,.66-.08.97-.24,1.03-.53,1.42-1.8.89-2.82l-9.33-17.89Z"/>
      <path class="cls-1" d="M9.55,112.98c3.32,5.87,7.42,11.24,12.16,15.98l1.89-4.49c-11.84-12.48-19.17-29.29-19.17-47.81"/>
      <path class="cls-1" d="M4.43,76.66C4.43,38.32,35.63,7.12,73.97,7.12s69.55,31.2,69.55,69.54c0,18.62-7.4,35.51-19.35,48l2.18,4.17c13.34-13.39,21.6-31.84,21.6-52.18C147.95,35.87,114.76,2.69,73.97,2.69S0,35.87,0,76.66c0,13.19,3.47,25.58,9.55,36.32"/>
      <path class="cls-1" d="M226.68,118.36c-27.09,0-49.13-21.78-49.13-48.56s21.81-48.79,48.61-48.79c11.9.06,25.35,5.72,34.29,14.42l.42.41-8.91,13.28-.6-.59c-7.16-7.05-16.88-11.43-25.37-11.43-19.28,0-32.24,16.91-32.24,32.7,0,18.21,14.75,32.47,33.57,32.47,15.61,0,26.99-9.55,27.22-22.78h-25.4l6.69-14.77h35.25l.07.63c.19,1.72.4,4.38.4,7.33,0,26.47-18.87,45.68-44.87,45.68"/>
      <path class="cls-1" d="M329.84,118.53c-20.39,0-35.77-16.17-35.77-37.61V22.58h16.03v58.29c0,12.27,8.46,21.53,19.69,21.53s19.8-9.25,19.8-21.53V22.58h16.08v58.35c0,21.44-15.4,37.61-35.82,37.61M342.74,13.5c-3.69,0-6.68-3-6.68-6.69s3.06-6.81,6.68-6.81,6.81,3.12,6.81,6.81-3.05,6.69-6.81,6.69M316.94,13.5c-3.65,0-6.74-3.06-6.74-6.69s3.09-6.81,6.74-6.81,6.75,3.12,6.75,6.81-3.09,6.69-6.75,6.69"/>
      <polygon class="cls-1" points="427.89 118.71 384.58 22.58 401.62 22.58 428.81 84.37 456.11 22.58 473.26 22.58 429.77 118.71 427.89 118.71"/>
      <polygon class="cls-1" points="493.14 116.81 493.14 22.58 549.82 22.58 549.82 38.31 509.11 38.31 509.11 60.7 544.24 60.7 544.24 76.61 509.11 76.61 509.11 100.89 549.82 100.89 549.82 116.81 493.14 116.81"/>
      <polygon class="cls-1" points="649.28 118.42 590.91 57.44 590.91 116.92 574.94 116.92 574.94 20.96 576.7 20.96 634.95 81.82 634.95 22.35 650.98 22.35 650.98 118.42 649.28 118.42"/>
      <path class="cls-1" d="M690.19,85.69h7.95c5.14,0,9.48,1.53,13.01,4.6,3.59,3.06,5.37,7.25,5.37,12.54s-1.82,9.53-5.45,12.54c-3.69,3.07-8.1,4.6-13.25,4.6-4.26,0-8.01-1.03-11.26-3.08-3.25-2.05-5.49-4.92-6.74-8.61l6.15-3.51c.73,2.6,2.13,4.6,4.21,6s4.62,2.1,7.64,2.1c3.48,0,6.27-.9,8.38-2.69,2.1-1.79,3.16-4.25,3.16-7.36s-1.05-5.58-3.16-7.4c-2.1-1.82-4.84-2.73-8.22-2.73h-15.43l2.03-28.28h29.84v6.78h-23.3l-.94,14.49Z"/>
      <path class="cls-1" d="M756.5,112.26c-3.64,5.14-8.8,7.71-15.5,7.71s-11.87-2.57-15.51-7.71c-3.69-5.19-5.53-12.05-5.53-20.57s1.84-15.37,5.53-20.57c3.63-5.14,8.8-7.71,15.51-7.71s11.87,2.57,15.5,7.71c3.69,5.2,5.53,12.05,5.53,20.57s-1.84,15.38-5.53,20.57M727.21,91.69c0,6.75,1.19,11.97,3.58,15.66,2.39,3.69,5.79,5.53,10.21,5.53s7.83-1.84,10.25-5.53c2.41-3.69,3.62-8.91,3.62-15.66s-1.21-11.99-3.62-15.7c-2.42-3.71-5.83-5.57-10.25-5.57s-7.82,1.84-10.21,5.53c-2.39,3.69-3.58,8.93-3.58,15.74"/>
      <path class="cls-1" d="M782.41,116.86l6.24-16.13h2.69l-8.24,21.02c-.77,1.95-1.84,3.46-3.21,4.52-1.37,1.06-2.89,1.53-4.56,1.4v-2.39c2.31.28,4.07-1.05,5.28-4l.5-1.19-8.62-19.36h2.7l7.24,16.13Z"/>
      <path class="cls-1" d="M802.55,100.26c2.87,0,5.17,1.01,6.89,3.04,1.77,2,2.66,4.38,2.66,7.12,0,.13-.03.53-.08,1.19h-16.9c.26,1.92,1.08,3.47,2.46,4.62,1.39,1.16,3.12,1.73,5.2,1.73,2.93,0,4.99-1.09,6.2-3.27l2.23,1.31c-.85,1.39-2.01,2.47-3.48,3.25-1.48.78-3.14,1.17-4.99,1.17-3.03,0-5.49-.95-7.39-2.85-1.9-1.9-2.85-4.31-2.85-7.24s.94-5.3,2.81-7.2c1.87-1.92,4.29-2.89,7.24-2.89M802.55,102.73c-2,0-3.68.59-5.03,1.77-1.35,1.18-2.15,2.73-2.41,4.66h14.36c-.28-2.05-1.07-3.63-2.35-4.73-1.33-1.13-2.86-1.7-4.58-1.7"/>
      <path class="cls-1" d="M832.69,104.5v-3.77h2.54v19.25h-2.54v-3.77c-1.77,2.82-4.36,4.23-7.78,4.23-2.75,0-5.1-.97-7.05-2.93-1.92-1.95-2.89-4.34-2.89-7.16s.96-5.21,2.89-7.16c1.95-1.95,4.3-2.93,7.05-2.93,3.41,0,6.01,1.41,7.78,4.24M819.72,115.78c1.46,1.46,3.26,2.19,5.39,2.19s3.93-.73,5.39-2.19c1.46-1.51,2.19-3.32,2.19-5.43s-.73-3.93-2.19-5.39c-1.46-1.49-3.26-2.23-5.39-2.23s-3.93.75-5.39,2.23c-1.46,1.46-2.19,3.26-2.19,5.39s.73,3.91,2.19,5.43"/>
      <path class="cls-1" d="M843.16,100.73v3.19c1.18-2.34,3.21-3.5,6.08-3.5v2.47c-1.85,0-3.33.53-4.43,1.6-1.1,1.06-1.66,2.66-1.66,4.79v10.7h-2.54v-19.25h2.54Z"/>
      <path class="cls-1" d="M780.99,69.95v2.86h-3.41v6.59c0,.57.13.98.39,1.22.26.25.64.38,1.14.41.5.03,1.13.02,1.88-.01v2.66c-2.27.27-3.9.08-4.89-.59-.99-.67-1.48-1.9-1.48-3.7v-6.59h-2.53v-2.86h2.53v-2.97l2.97-.88v3.85h3.41Z"/>
      <path class="cls-1" d="M790.91,69.6c1.59,0,2.87.51,3.83,1.52.96,1.02,1.44,2.4,1.44,4.14v8.44h-2.97v-8.13c0-1.03-.28-1.81-.82-2.36-.55-.55-1.3-.82-2.25-.82-1.08,0-1.93.33-2.55,1-.62.67-.93,1.65-.93,2.95v7.36h-2.97v-19.23h2.97v7.25c.91-1.41,2.33-2.11,4.26-2.11"/>
    </g>
  </g>
</svg>